<svg class="company-logo" viewBox="0 0 3571 456" fill="none" xmlns="http://www.w3.org/2000/svg">
                        <path d="M595.361 43.4287H714.445C823.722 43.4287 887.467 106.47 887.467 195.429C887.467 284.387 823.021 350.231 712.343 350.231H595.361V43.4287ZM715.145 275.281C766.281 275.281 799.905 247.263 799.905 197.53C799.905 148.498 766.281 119.779 715.145 119.779H680.821V275.982L715.145 275.281Z" fill="white"></path>
                        <path d="M1027.57 321.511V350.931H944.207V30.1196H1027.57V144.995C1043.68 125.382 1063.99 107.871 1099.02 107.871C1155.76 107.871 1204.79 154.802 1204.79 231.152C1204.79 308.203 1155.76 355.133 1099.72 355.133C1085.9 355.572 1072.17 352.758 1059.64 346.918C1047.1 341.078 1036.12 332.375 1027.57 321.511ZM1122.83 231.852C1122.83 201.032 1101.12 178.617 1073.8 178.617C1046.48 178.617 1025.46 201.032 1025.46 231.852C1025.46 264.073 1047.18 285.788 1073.8 285.788C1100.42 285.788 1122.83 264.073 1122.83 231.852Z" fill="white"></path>
                        <path d="M1238.41 43.4287H1333.68L1403.03 238.157L1473.08 43.4287H1566.25L1441.56 353.033H1363.1L1238.41 43.4287Z" fill="white"></path>
                        <path d="M1604.07 30.1196H1690.93V91.7601H1604.07V30.1196ZM1606.17 113.474H1689.53V350.931H1606.17V113.474Z" fill="white"></path>
                        <path d="M1735.06 320.811L1766.59 270.378C1790.49 287.09 1818.7 296.574 1847.84 297.696C1862.55 297.696 1868.86 293.493 1868.86 285.087V283.686C1868.86 274.581 1856.25 271.078 1831.03 264.073C1784.1 251.465 1746.97 235.355 1746.97 187.723C1746.97 137.29 1786.9 109.272 1842.24 109.272C1876.6 109.154 1910.32 118.614 1939.61 136.59L1911.59 189.124C1887.07 175.816 1859.75 167.41 1840.84 167.41C1821.93 167.41 1821.93 172.313 1821.93 178.617V180.018C1821.93 189.124 1835.24 193.327 1860.45 201.032C1907.39 214.341 1944.51 230.451 1944.51 275.981V277.382C1944.51 329.216 1905.28 356.534 1847.84 356.534C1807.43 356.798 1767.96 344.296 1735.06 320.811Z" fill="white"></path>
                        <path d="M1994.95 268.277V113.475H2078.31V241.659C2078.31 267.576 2091.62 281.585 2111.93 281.585C2132.24 281.585 2146.25 267.576 2146.25 241.659V113.475H2229.61V350.931H2146.25V318.009C2130.84 337.622 2109.13 355.834 2075.5 355.834C2025.07 355.834 1994.95 322.212 1994.95 268.277Z" fill="white"></path>
                        <path d="M2280.05 282.286C2280.05 233.253 2317.88 208.037 2373.21 208.037C2392.5 207.978 2411.66 211.053 2429.95 217.143V212.94C2429.95 188.424 2415.24 174.415 2383.02 174.415C2360.62 174.354 2338.45 178.883 2317.88 187.724L2300.36 128.885C2330.71 116.13 2363.42 109.924 2396.33 110.673C2439.06 110.673 2467.78 120.479 2486.69 139.392C2505.61 158.304 2512.61 181.419 2512.61 215.041V351.631H2429.95V326.415C2421.24 336.313 2410.44 344.15 2398.32 349.36C2386.21 354.569 2373.08 357.02 2359.91 356.535C2315.07 355.834 2280.05 329.917 2280.05 282.286ZM2431.36 264.774V253.567C2420.88 249.398 2409.71 247.259 2398.43 247.263C2374.62 247.263 2360.61 259.171 2360.61 276.682V278.083C2360.61 294.194 2372.51 304 2390.03 304C2407.54 304 2431.36 288.59 2431.36 264.774Z" fill="white"></path>
                        <path d="M2573.56 30.1196H2656.91V350.931H2573.56V30.1196Z" fill="white"></path>
                        <path d="M2721.36 30.1196H2808.22V91.7601H2721.36V30.1196ZM2722.76 113.474H2806.12V350.931H2722.76V113.474Z" fill="white"></path>
                        <path d="M2862.16 295.594L2971.44 179.318H2865.66V113.475H3082.11V168.111L2972.14 284.387H3082.11V350.931H2862.16V295.594Z" fill="white"></path>
                        <path d="M3118.54 233.254V231.853C3118.54 163.207 3168.28 107.871 3238.32 107.871C3320.28 107.871 3358.11 168.111 3358.11 238.157C3358.21 243.77 3357.98 249.383 3357.41 254.968H3199.1C3205.4 280.885 3224.31 294.194 3250.23 294.194C3276.15 294.194 3285.96 286.489 3302.77 269.678L3349 308.203C3336.83 323.764 3321.16 336.245 3303.28 344.64C3285.39 353.035 3265.78 357.11 3246.03 356.535C3171.08 356.535 3118.54 306.802 3118.54 233.254ZM3280.35 212.24C3276.85 186.323 3261.44 169.512 3239.03 169.512C3216.61 169.512 3201.9 186.323 3197.7 212.24H3280.35Z" fill="white"></path>
                        <path d="M3411.35 113.474H3494.71V161.106C3508.02 128.885 3530.43 107.871 3569.66 109.272V196.829H3562.65C3519.22 196.829 3494.71 222.046 3494.71 276.682V350.931H3411.35V113.474Z" fill="white"></path>
                        <path d="M189.074 75.6497C292.747 75.6497 376.806 58.8387 376.806 37.8248C376.806 16.811 292.747 0 189.074 0C85.4009 0 1.34155 16.811 1.34155 37.8248C1.34155 58.8387 85.4009 75.6497 189.074 75.6497Z" fill="white"></path>
                        <path d="M376.806 149.198C376.806 170.212 292.747 187.023 189.074 187.023C85.4009 187.023 1.34155 170.212 1.34155 149.198V115.576C1.34155 135.89 85.4009 152.701 189.074 152.701C292.747 152.701 376.806 135.89 376.806 115.576V149.198Z" fill="white"></path>
                        <path d="M209.388 297.696H189.074C85.4009 297.696 1.34155 280.885 1.34155 260.572V226.249C1.34155 247.263 85.4009 264.074 189.074 264.074H217.094C217.094 264.074 213.591 273.18 211.49 280.885C209.388 288.59 209.388 297.696 209.388 297.696Z" fill="white"></path>
                        <path d="M255.621 406.968C234.606 408.369 212.19 409.069 189.074 409.069C85.4009 409.069 1.34155 392.258 1.34155 371.945V337.622C1.34155 358.636 85.4009 375.447 189.074 375.447H227.601C230.772 381.189 234.528 386.588 238.809 391.558C243.907 397.22 249.537 402.381 255.621 406.968Z" fill="white"></path>
                        <path d="M388.014 397.161C368.463 408.759 345.623 413.561 323.056 410.819C300.49 408.077 279.465 397.945 263.26 382.002C247.055 366.06 236.582 345.203 233.473 322.685C230.364 300.167 234.794 277.253 246.072 257.517C257.351 237.78 274.844 222.33 295.823 213.576C316.803 204.823 340.09 203.257 362.052 209.123C384.015 214.99 403.419 227.959 417.239 246.008C431.058 264.057 438.516 286.171 438.45 308.903C438.521 328.296 432.921 347.287 422.339 363.539L480.48 421.677L446.155 456L388.014 397.161ZM335.477 250.765C323.949 250.626 312.64 253.917 302.987 260.22C293.334 266.524 285.773 275.554 281.265 286.165C276.757 296.775 275.505 308.486 277.669 319.81C279.833 331.133 285.314 341.558 293.417 349.759C301.519 357.96 311.877 363.567 323.174 365.867C334.471 368.168 346.197 367.058 356.862 362.679C367.526 358.3 376.648 350.85 383.069 341.274C389.489 331.699 392.917 320.431 392.918 308.903C392.919 293.604 386.89 278.922 376.137 268.039C365.385 257.156 350.775 250.949 335.477 250.765Z" fill="white"></path>
                      </svg>