<svg class="company-logo" viewBox="0 0 2969 525" fill="none" xmlns="http://www.w3.org/2000/svg">
                        <path d="M161.024 421.623V467.552C161.024 477.282 150.395 483.281 141.932 478.173L120.566 464.455L115.455 461.572C115.09 461.365 85.547 444.286 21.3538 407.171L16.2552 404.247C11.2283 401.346 7.10445 397.195 4.25454 392.184C1.43607 387.211 -0.0306624 381.569 0.0244841 375.962L0 261.582V147.017C0 140.936 1.71768 134.997 4.91549 129.893C8.07874 124.772 12.6592 120.564 17.42 118.263L110.236 64.6253L115.304 61.6588C116.99 60.6928 116.99 60.6928 120.418 58.7403L209.319 7.41841L214.505 4.34615C219.917 1.22905 226.038 -0.25364 232.243 0.0354524C238.269 0.32789 244.209 2.30265 248.372 5.26632L340.88 58.7211L346.006 61.613C346.376 61.8277 377.229 79.6655 440.042 115.98L445.171 118.914C450.196 121.822 454.309 125.967 457.158 130.977C459.97 135.937 461.436 141.578 461.389 147.201L461.409 251.356C461.41 260.982 450.984 266.997 442.649 262.179L402.735 239.109C398.871 236.875 396.491 232.751 396.491 228.288V165.706L315.225 118.718C314.523 118.37 312.94 117.467 308.545 114.92L230.701 69.8682L149.71 116.641C148.933 117.152 148.933 117.152 148.469 117.448C148.281 117.563 146.37 118.675 142.736 120.783L64.9229 165.711V357.452L146.227 404.458C146.747 404.718 147.865 405.358 153.049 408.35L154.725 409.837L156.113 411.692C159.19 414.042 161.024 417.707 161.024 421.623ZM396.491 303.576C396.491 293.96 406.899 287.945 415.233 292.745L455.147 315.732C459.021 317.963 461.409 322.092 461.409 326.562V364.619C461.409 367.88 460.134 371.011 457.851 373.352L439.034 392.532C431.978 401.551 421.618 405.139 412.374 399.815L264.061 313.848L264.024 476.053C264.545 482.14 262.031 488.094 257.252 491.944C252.575 495.725 252.575 495.725 229.901 514.038C226.502 517.186 222.053 518.942 217.397 518.942C207.249 518.942 199.024 510.713 199.024 500.565L199.048 276.263L174.054 261.819L161.419 269.083C160.816 269.505 161.03 269.381 148.276 276.742C139.287 282 127.969 279.218 122.798 270.301C121.569 268.178 121.569 268.178 115.756 258.137L108.778 246.103C103.549 237.084 106.341 225.789 115.265 220.629C117.447 219.376 117.447 219.376 127.538 213.584L157.971 196.068L163.458 192.971C169.304 188.812 177.053 188.433 183.332 192.056L190.263 196.094L396.491 315.252V303.576Z" fill="white"></path>
                        <path fill-rule="evenodd" clip-rule="evenodd" d="M594.499 365.831C592.16 365.831 590.113 364.956 588.356 363.212C586.604 361.462 585.721 359.423 585.721 357.094V129.89C585.721 127.331 586.604 125.232 588.356 123.603C590.113 121.968 592.16 121.154 594.499 121.154H643.638C646.213 121.154 648.316 121.968 649.957 123.603C651.593 125.232 652.411 127.331 652.411 129.89V310.957H757.712C760.281 310.957 762.449 311.826 764.201 313.576C765.958 315.325 766.836 317.479 766.836 320.043V357.094C766.836 359.658 765.958 361.757 764.201 363.387C762.449 365.016 760.281 365.831 757.712 365.831H594.499ZM782.63 365.831C780.758 365.831 779.057 365.076 777.541 363.556C776.015 362.042 775.257 360.353 775.257 358.488C775.257 357.094 775.378 356.044 775.609 355.345L857.391 131.29C859.729 124.533 864.407 121.154 871.428 121.154H926.184C933.2 121.154 937.883 124.533 940.222 131.29L1022 355.345C1022.24 356.044 1022.35 357.094 1022.35 358.488C1022.35 360.353 1021.59 362.042 1020.07 363.556C1018.55 365.076 1016.85 365.831 1014.98 365.831H969.351C963.74 365.831 959.76 363.267 957.421 358.139L944.784 324.236H852.829L840.191 358.139C837.852 363.267 833.872 365.831 828.256 365.831H782.63ZM867.569 271.806H930.043L898.806 182.67L867.569 271.806ZM1058.15 365.831C1055.58 365.831 1053.42 365.016 1051.66 363.387C1049.91 361.757 1049.03 359.658 1049.03 357.094V130.24C1049.03 127.681 1049.91 125.522 1051.66 123.778C1053.42 122.028 1055.58 121.154 1058.15 121.154H1097.82C1103.66 121.154 1107.88 123.718 1110.45 128.841L1170.82 236.5L1231.54 128.841C1234.11 123.718 1238.33 121.154 1244.18 121.154H1283.84C1286.42 121.154 1288.58 122.028 1290.34 123.778C1292.09 125.522 1292.97 127.681 1292.97 130.24V357.094C1292.97 359.658 1292.09 361.757 1290.34 363.387C1288.58 365.016 1286.42 365.831 1283.84 365.831H1239.26C1236.93 365.831 1234.88 364.956 1233.12 363.212C1231.37 361.462 1230.49 359.423 1230.49 357.094V229.857L1192.58 299.071C1189.54 304.429 1185.45 307.108 1180.3 307.108H1161.35C1156.66 307.108 1152.57 304.429 1149.06 299.071L1111.5 229.857V357.094C1111.5 359.658 1110.63 361.757 1108.87 363.387C1107.12 365.016 1104.95 365.831 1102.38 365.831H1058.15ZM1349.47 365.831C1347.13 365.831 1345.09 364.956 1343.33 363.212C1341.58 361.462 1340.7 359.423 1340.7 357.094V130.24C1340.7 127.681 1341.52 125.522 1343.15 123.778C1344.79 122.028 1346.9 121.154 1349.47 121.154H1457.93C1487.65 121.154 1509.76 127.212 1524.27 139.332C1538.77 151.447 1546.03 168.691 1546.03 191.062C1546.03 202.248 1543.04 211.919 1537.08 220.071C1531.11 228.228 1524.5 234.171 1517.25 237.899C1526.84 242.093 1534.91 249.025 1541.47 258.696C1548.02 268.368 1551.29 279.264 1551.29 291.379C1551.29 314.91 1543.51 333.208 1527.95 346.258C1512.39 359.303 1490.11 365.831 1461.09 365.831H1349.47ZM1450.56 217.977C1459.21 217.977 1465.88 215.648 1470.57 210.985C1475.24 206.321 1477.59 200.269 1477.59 192.812C1477.59 185.584 1475.3 179.702 1470.74 175.158C1466.18 170.61 1459.45 168.341 1450.56 168.341H1406.69V217.977H1450.56ZM1453.72 318.644C1462.84 318.644 1469.92 316.02 1474.95 310.777C1479.98 305.539 1482.5 299.071 1482.5 291.379C1482.5 283.457 1479.93 276.874 1474.78 271.626C1469.63 266.388 1462.61 263.764 1453.72 263.764H1406.69V318.644H1453.72ZM1597.62 365.831C1595.28 365.831 1593.24 364.956 1591.48 363.212C1589.72 361.462 1588.85 359.423 1588.85 357.094V130.24C1588.85 127.681 1589.67 125.522 1591.31 123.778C1592.94 122.028 1595.05 121.154 1597.62 121.154H1689.94C1724.57 121.154 1751.47 129.366 1770.66 145.799C1789.85 162.223 1799.91 185.819 1800.84 216.577C1801.08 223.335 1801.2 232.306 1801.2 243.492C1801.2 254.678 1801.08 263.53 1800.84 270.057C1798.5 333.903 1762.12 365.831 1691.69 365.831H1597.62ZM1689.94 313.401C1704.67 313.401 1715.55 309.907 1722.58 302.915C1729.59 295.927 1733.34 284.736 1733.8 269.357C1734.28 262.6 1734.51 253.863 1734.51 243.142C1734.51 232.421 1734.28 223.8 1733.8 217.277C1733.34 202.363 1729.3 191.352 1721.7 184.245C1714.09 177.137 1702.92 173.584 1688.18 173.584H1654.83V313.401H1689.94ZM1827.52 365.831C1825.65 365.831 1823.95 365.076 1822.43 363.556C1820.91 362.042 1820.15 360.353 1820.15 358.488C1820.15 357.094 1820.26 356.044 1820.5 355.345L1902.28 131.29C1904.62 124.533 1909.3 121.154 1916.32 121.154H1971.08C1978.1 121.154 1982.77 124.533 1985.11 131.29L2066.9 355.345C2067.13 356.044 2067.24 357.094 2067.24 358.488C2067.24 360.353 2066.48 362.042 2064.96 363.556C2063.45 365.076 2061.75 365.831 2059.87 365.831H2014.25C2008.63 365.831 2004.65 363.267 2002.31 358.139L1989.68 324.236H1897.72L1885.08 358.139C1882.74 363.267 1878.77 365.831 1873.15 365.831H1827.52ZM1912.46 271.806H1974.93L1943.7 182.67L1912.46 271.806Z" fill="white"></path>
                        <path fill-rule="evenodd" clip-rule="evenodd" d="M2140.15 369.324C2137.57 369.324 2135.42 368.51 2133.65 366.88C2131.9 365.251 2131.02 363.152 2131.02 360.588V181.621H2069.25C2066.68 181.621 2064.51 180.806 2062.76 179.177C2061 177.542 2060.12 175.448 2060.12 172.884V133.734C2060.12 131.175 2061 129.016 2062.76 127.271C2064.51 125.522 2066.68 124.647 2069.25 124.647H2259.84C2262.41 124.647 2264.57 125.522 2266.33 127.271C2268.08 129.016 2268.96 131.175 2268.96 133.734V172.884C2268.96 175.448 2268.08 177.542 2266.33 179.177C2264.57 180.806 2262.41 181.621 2259.84 181.621H2198.06V360.588C2198.06 363.152 2197.18 365.251 2195.43 366.88C2193.67 368.51 2191.51 369.324 2188.94 369.324H2140.15ZM2308.62 369.324C2306.29 369.324 2304.23 368.45 2302.48 366.705C2300.73 364.956 2299.85 362.917 2299.85 360.588V133.734C2299.85 131.175 2300.67 129.016 2302.31 127.271C2303.95 125.522 2306.05 124.647 2308.62 124.647H2474.29C2476.86 124.647 2479.02 125.522 2480.78 127.271C2482.54 129.016 2483.42 131.175 2483.42 133.734V168.341C2483.42 170.905 2482.54 172.999 2480.78 174.628C2479.02 176.263 2476.86 177.078 2474.29 177.078H2363.38V221.471H2466.57C2469.14 221.471 2471.3 222.345 2473.06 224.09C2474.82 225.839 2475.69 227.993 2475.69 230.557V262.365C2475.69 264.929 2474.82 267.083 2473.06 268.833C2471.3 270.577 2469.14 271.457 2466.57 271.457H2363.38V316.894H2477.1C2479.67 316.894 2481.84 317.769 2483.59 319.513C2485.34 321.263 2486.22 323.417 2486.22 325.981V360.588C2486.22 363.152 2485.34 365.251 2483.59 366.88C2481.84 368.51 2479.67 369.324 2477.1 369.324H2308.62ZM2618.19 372.818C2595.5 372.818 2576.19 369.559 2560.28 363.032C2544.37 356.509 2532.32 347.887 2524.13 337.162C2515.94 326.451 2511.61 314.795 2511.15 302.21C2511.15 300.116 2511.9 298.366 2513.42 296.967C2514.94 295.572 2516.76 294.873 2518.86 294.873H2565.54C2568.35 294.873 2570.63 295.337 2572.39 296.272C2574.15 297.202 2576.07 298.831 2578.18 301.16C2581.22 306.753 2585.96 311.356 2592.4 314.97C2598.83 318.584 2607.43 320.388 2618.19 320.388C2630.83 320.388 2640.54 318.464 2647.33 314.625C2654.11 310.777 2657.5 305.479 2657.5 298.716C2657.5 293.828 2655.75 289.805 2652.24 286.661C2648.73 283.512 2643.12 280.713 2635.4 278.269C2627.67 275.825 2616.56 273.086 2602.05 270.057C2573.74 264.464 2552.56 255.957 2538.52 244.537C2524.48 233.121 2517.46 216.807 2517.46 195.605C2517.46 181.156 2521.49 168.281 2529.57 156.98C2537.64 145.674 2549.11 136.883 2563.96 130.59C2578.82 124.298 2596.08 121.154 2615.74 121.154C2636.33 121.154 2654.17 124.707 2669.26 131.81C2684.36 138.922 2695.94 147.774 2704.01 158.375C2712.08 168.981 2716.36 179.407 2716.82 189.663C2716.82 191.757 2716.12 193.566 2714.71 195.081C2713.31 196.595 2711.56 197.35 2709.45 197.35H2660.32C2655.17 197.35 2651.19 195.256 2648.38 191.057C2646.97 186.164 2643.35 182.031 2637.5 178.652C2631.65 175.273 2624.4 173.584 2615.74 173.584C2605.91 173.584 2598.3 175.333 2592.92 178.827C2587.54 182.321 2584.85 187.449 2584.85 194.206C2584.85 200.963 2588.36 206.266 2595.38 210.11C2602.4 213.958 2615.51 217.857 2634.69 221.82C2656.69 225.779 2674.18 230.732 2687.16 236.675C2700.15 242.613 2709.74 250.31 2715.94 259.741C2722.15 269.182 2725.24 281.128 2725.24 295.572C2725.24 311.416 2720.68 325.166 2711.56 336.817C2702.43 348.467 2689.8 357.379 2673.65 363.556C2657.5 369.734 2639.02 372.818 2618.19 372.818ZM2822.12 369.324C2819.54 369.324 2817.37 368.51 2815.62 366.88C2813.87 365.251 2812.99 363.152 2812.99 360.588V181.621H2751.22C2748.64 181.621 2746.48 180.806 2744.73 179.177C2742.97 177.542 2742.1 175.448 2742.1 172.884V133.734C2742.1 131.175 2742.97 129.016 2744.73 127.271C2746.48 125.522 2748.64 124.647 2751.22 124.647H2941.8C2944.38 124.647 2946.54 125.522 2948.3 127.271C2950.05 129.016 2950.93 131.175 2950.93 133.734V172.884C2950.93 175.448 2950.05 177.542 2948.3 179.177C2946.54 180.806 2944.38 181.621 2941.8 181.621H2880.03V360.588C2880.03 363.152 2879.15 365.251 2877.39 366.88C2875.64 368.51 2873.48 369.324 2870.91 369.324H2822.12Z" fill="white"></path>
                      </svg>