<svg width="230" height="48" viewBox="0 0 230 48" fill="none" xmlns="http://www.w3.org/2000/svg">
<path d="M35.6667 5.33333H7.696C4.26982 5.33333 1.20301 3.20804 0 0H64.7681C77.5091 0 86.5059 12.4823 82.4768 24.5696L74.6667 48H69.3333L77.7611 22.9126C80.6634 14.2732 74.2358 5.33333 65.1219 5.33333H41V8C41 18.3093 49.3574 26.6667 59.6667 26.6667H71L64 48H58.6667L64 32H59.6667C46.4118 32 35.6667 21.2548 35.6667 8V5.33333Z" fill="#4CC38A"/>
<path d="M17.6667 26.6667H14.696C11.2698 26.6667 8.20301 24.5414 7 21.3333H19.6667L21.3333 16H10.921C7.59675 16 4.65821 13.8396 3.66667 10.6667H28.3333L16 48H10.6667L17.6667 26.6667Z" fill="#4CC38A"/>
<path d="M32 48H26.6667L29.6936 38.9193C31.0709 34.7872 34.9379 32 39.2936 32C46.2006 32 51.0778 38.7667 48.8936 45.3193L48 48H42.3333L43.7258 43.9493C44.84 40.7079 42.4316 37.3333 39.0041 37.3333C36.8202 37.3333 34.8898 38.7526 34.2384 40.837L32 48Z" fill="#4CC38A"/>
<path d="M70.6667 16C70.6667 18.2091 68.8758 20 66.6667 20C64.4575 20 62.6667 18.2091 62.6667 16C62.6667 13.7909 64.4575 12 66.6667 12C68.8758 12 70.6667 13.7909 70.6667 16Z" fill="#4CC38A"/>
<path d="M107.333 36.9484V10.6667H117.189C119.208 10.6667 120.902 11.0431 122.27 11.796C123.648 12.5488 124.687 13.584 125.389 14.9015C126.099 16.2105 126.454 17.6991 126.454 19.3674C126.454 21.0527 126.099 22.5499 125.389 23.8589C124.679 25.1678 123.631 26.1987 122.245 26.9516C120.859 27.6959 119.152 28.068 117.124 28.068H110.593V24.154H116.483C117.663 24.154 118.63 23.9487 119.383 23.538C120.136 23.1274 120.692 22.5627 121.051 21.8441C121.419 21.1255 121.603 20.2999 121.603 19.3674C121.603 18.4348 121.419 17.6135 121.051 16.9035C120.692 16.1934 120.132 15.6416 119.37 15.248C118.617 14.8459 117.646 14.6449 116.457 14.6449H112.094V36.9484H107.333Z" fill="white"/>
<path d="M138.033 37.3334C136.057 37.3334 134.35 36.9227 132.913 36.1014C131.484 35.2715 130.385 34.0995 129.615 32.5852C128.845 31.0624 128.46 29.27 128.46 27.2082C128.46 25.1806 128.845 23.4012 129.615 21.8698C130.393 20.3298 131.48 19.1321 132.874 18.2766C134.269 17.4125 135.907 16.9805 137.789 16.9805C139.004 16.9805 140.15 17.1772 141.228 17.5708C142.315 17.9557 143.273 18.5546 144.103 19.3674C144.941 20.1801 145.6 21.2153 146.079 22.4729C146.558 23.722 146.798 25.2106 146.798 26.9387V28.3632H130.641V25.232H142.345C142.336 24.3422 142.144 23.5509 141.767 22.8579C141.391 22.1564 140.865 21.6046 140.189 21.2025C139.522 20.8004 138.743 20.5993 137.853 20.5993C136.904 20.5993 136.07 20.8303 135.351 21.2923C134.632 21.7457 134.072 22.3446 133.67 23.0889C133.276 23.8246 133.075 24.6331 133.067 25.5143V28.2477C133.067 29.3941 133.276 30.378 133.696 31.1993C134.115 32.012 134.701 32.6365 135.454 33.0728C136.206 33.5006 137.088 33.7145 138.097 33.7145C138.773 33.7145 139.385 33.6204 139.932 33.4322C140.48 33.2354 140.955 32.9488 141.357 32.5724C141.759 32.1959 142.063 31.7297 142.268 31.1736L146.605 31.6612C146.332 32.8076 145.81 33.8086 145.04 34.6641C144.278 35.5111 143.303 36.1698 142.114 36.6404C140.925 37.1024 139.564 37.3334 138.033 37.3334Z" fill="white"/>
<path d="M158.659 37.3334C156.683 37.3334 154.976 36.9227 153.539 36.1014C152.11 35.2715 151.011 34.0995 150.241 32.5852C149.471 31.0624 149.086 29.27 149.086 27.2082C149.086 25.1806 149.471 23.4012 150.241 21.8698C151.019 20.3298 152.106 19.1321 153.5 18.2766C154.895 17.4125 156.533 16.9805 158.415 16.9805C159.63 16.9805 160.777 17.1772 161.855 17.5708C162.941 17.9557 163.899 18.5546 164.729 19.3674C165.568 20.1801 166.226 21.2153 166.705 22.4729C167.185 23.722 167.424 25.2106 167.424 26.9387V28.3632H151.268V25.232H162.971C162.963 24.3422 162.77 23.5509 162.394 22.8579C162.017 22.1564 161.491 21.6046 160.815 21.2025C160.148 20.8004 159.369 20.5993 158.48 20.5993C157.53 20.5993 156.696 20.8303 155.977 21.2923C155.259 21.7457 154.698 22.3446 154.296 23.0889C153.903 23.8246 153.701 24.6331 153.693 25.5143V28.2477C153.693 29.3941 153.903 30.378 154.322 31.1993C154.741 32.012 155.327 32.6365 156.08 33.0728C156.833 33.5006 157.714 33.7145 158.723 33.7145C159.399 33.7145 160.011 33.6204 160.558 33.4322C161.106 33.2354 161.581 32.9488 161.983 32.5724C162.385 32.1959 162.689 31.7297 162.894 31.1736L167.232 31.6612C166.958 32.8076 166.436 33.8086 165.666 34.6641C164.905 35.5111 163.929 36.1698 162.74 36.6404C161.551 37.1024 160.191 37.3334 158.659 37.3334Z" fill="white"/>
<path d="M170.559 36.9484V17.2371H175.063V20.5223H175.269C175.628 19.3845 176.244 18.5076 177.117 17.8916C177.998 17.2671 179.003 16.9548 180.132 16.9548C180.389 16.9548 180.676 16.9676 180.992 16.9933C181.317 17.0104 181.587 17.0403 181.801 17.0831V21.3565C181.604 21.288 181.292 21.2281 180.864 21.1768C180.445 21.1169 180.038 21.087 179.645 21.087C178.798 21.087 178.036 21.2709 177.361 21.6388C176.693 21.9981 176.167 22.4986 175.782 23.1402C175.397 23.7819 175.205 24.5219 175.205 25.3603V36.9484H170.559Z" fill="white"/>
<path d="M193.203 36.9484H184.297V10.6667H193.383C195.992 10.6667 198.234 11.1928 200.107 12.2451C201.99 13.2889 203.435 14.7903 204.445 16.7495C205.454 18.7086 205.959 21.0527 205.959 23.7819C205.959 26.5195 205.45 28.8722 204.432 30.8399C203.423 32.8076 201.964 34.3176 200.056 35.3699C198.157 36.4222 195.873 36.9484 193.203 36.9484ZM189.058 32.829H192.972C194.803 32.829 196.33 32.4954 197.554 31.8281C198.777 31.1522 199.697 30.147 200.313 28.8123C200.929 27.4692 201.237 25.7923 201.237 23.7819C201.237 21.7714 200.929 20.1031 200.313 18.777C199.697 17.4424 198.786 16.4457 197.579 15.787C196.382 15.1197 194.893 14.786 193.113 14.786H189.058V32.829Z" fill="white"/>
<path d="M209.688 36.9484V10.6667H219.749C221.648 10.6667 223.226 10.9661 224.484 11.565C225.75 12.1553 226.696 12.9638 227.32 13.9904C227.953 15.017 228.27 16.1805 228.27 17.4809C228.27 18.5503 228.064 19.4657 227.654 20.2272C227.243 20.98 226.691 21.5917 225.998 22.0623C225.305 22.5328 224.531 22.8707 223.676 23.0761V23.3327C224.608 23.384 225.502 23.6706 226.358 24.1925C227.222 24.7058 227.927 25.433 228.475 26.3741C229.023 27.3152 229.296 28.453 229.296 29.7876C229.296 31.1479 228.967 32.3713 228.308 33.4578C227.649 34.5358 226.657 35.387 225.331 36.0116C224.005 36.6361 222.337 36.9484 220.326 36.9484H209.688ZM214.449 32.9702H219.569C221.297 32.9702 222.542 32.6408 223.303 31.9821C224.073 31.3147 224.458 30.4592 224.458 29.4155C224.458 28.637 224.266 27.9354 223.881 27.3109C223.496 26.6778 222.948 26.1816 222.238 25.8223C221.528 25.4544 220.681 25.2705 219.697 25.2705H214.449V32.9702ZM214.449 21.8441H219.158C219.98 21.8441 220.72 21.6944 221.378 21.395C222.037 21.087 222.555 20.6549 222.931 20.0988C223.316 19.5342 223.509 18.8669 223.509 18.0969C223.509 17.0788 223.149 16.2404 222.431 15.5817C221.721 14.9229 220.664 14.5935 219.261 14.5935H214.449V21.8441Z" fill="white"/>
</svg>
