<svg version="1.1" id="Layer_1" xmlns="http://www.w3.org/2000/svg" xmlnsXlink="http://www.w3.org/1999/xlink" x="0px" y="0px"
	 width="100%" viewBox="0 0 820 171" enable-background="new 0 0 820 171" xmlSpace="preserve">
<path fill="#000000" opacity="1.000000" stroke="none" 
	d="
M248.000000,0.999999 
	C438.936646,1.000000 629.873291,1.000000 820.904968,1.000000 
	C820.904968,57.917599 820.904968,114.835411 820.904968,172.000000 
	C636.976746,172.000000 452.953400,172.000000 268.475586,171.613159 
	C276.702454,145.116226 285.094452,118.904778 294.186707,92.938538 
	C298.764923,79.863792 300.892090,66.688492 297.538635,53.323887 
	C291.070221,27.545036 275.471741,10.019011 249.244537,2.882958 
	C248.699280,2.734606 248.409149,1.648584 248.000000,0.999999 
M748.000000,72.500000 
	C748.000000,92.583290 748.000000,112.666573 748.000000,131.999710 
	C764.907654,131.999710 781.301575,132.626938 797.620972,131.793961 
	C809.867371,131.168884 819.771667,118.627251 818.900085,106.469910 
	C818.641479,102.862251 817.778870,99.033394 816.122925,95.865189 
	C814.484314,92.730156 811.828552,89.868088 809.000854,87.687897 
	C806.313904,85.616257 802.827332,84.581680 800.370667,83.413612 
	C802.987915,81.886322 806.614014,80.547462 809.217285,78.114288 
	C819.532654,68.473328 816.687805,47.249561 799.785034,41.128502 
	C795.774719,39.676247 791.250244,39.178017 786.945312,39.092419 
	C774.032898,38.835678 761.112122,39.000000 748.000000,39.000000 
	C748.000000,50.225910 748.000000,60.862957 748.000000,72.500000 
M657.000000,86.500000 
	C657.000000,101.916847 657.000000,117.333702 657.000000,133.000000 
	C664.832947,133.000000 672.133911,133.130112 679.428040,132.963669 
	C686.830017,132.794785 694.415649,133.269821 701.585510,131.812775 
	C718.703674,128.334106 727.838196,119.707420 733.030090,103.519653 
	C735.753296,95.028923 735.700989,86.350784 734.944824,77.677414 
	C733.694031,63.331139 727.760254,51.630611 714.758545,44.327133 
	C707.984558,40.521984 700.739014,38.802105 692.911377,38.943638 
	C681.002563,39.158966 669.087036,39.000000 657.000000,39.000000 
	C657.000000,54.905483 657.000000,70.202744 657.000000,86.500000 
M426.123840,100.999931 
	C432.771027,99.883492 438.882355,97.503441 443.736206,92.708748 
	C451.181854,85.353851 452.633087,76.032570 452.002655,66.106895 
	C451.034698,50.866714 439.828003,39.716133 424.849579,39.106071 
	C412.203979,38.591019 399.520752,38.991535 386.854187,39.013199 
	C385.595886,39.015350 384.337891,39.201298 383.344543,39.280762 
	C383.344543,70.754768 383.344543,101.827774 383.344543,132.650909 
	C389.437592,132.650909 395.182709,132.650909 401.305603,132.650909 
	C401.305603,121.892433 401.305603,111.480942 401.305603,101.000000 
	C409.535919,101.000000 417.365234,101.000000 426.123840,100.999931 
M522.316223,102.999718 
	C523.210693,102.058868 524.867432,101.116524 524.865601,100.177437 
	C524.858215,96.433769 524.473206,92.672638 523.977844,88.951271 
	C521.820129,72.743362 512.925415,63.450394 497.552399,61.245094 
	C483.440338,59.220680 470.132965,63.964565 462.854523,78.155556 
	C457.988159,87.643555 457.716949,97.662415 459.313141,107.339554 
	C461.168823,118.590149 466.769470,128.717407 479.014801,131.819427 
	C486.025909,133.595505 493.632996,134.344818 500.826660,133.762756 
	C511.531677,132.896561 523.095215,124.606949 523.755920,113.446693 
	C520.860291,112.963760 517.990540,112.213676 515.090393,112.067749 
	C511.157043,111.869858 507.373505,111.386696 504.380066,115.721817 
	C502.768860,118.055199 498.790985,119.220795 495.656647,119.953255 
	C483.725128,122.741493 475.529144,111.736336 476.448242,102.999992 
	C491.393555,102.999992 506.368805,102.999992 522.316223,102.999718 
M586.507812,129.046661 
	C593.439758,124.713707 596.133972,120.712036 597.196411,113.413193 
	C594.297668,112.944809 591.416626,112.198166 588.510254,112.081429 
	C584.945312,111.938248 581.539368,111.166847 578.725708,115.427605 
	C574.821960,121.339020 564.188171,122.111053 558.037781,118.517181 
	C552.188171,115.099045 549.584106,109.822975 549.817993,102.839783 
	C565.749451,102.839783 581.690552,102.839783 598.000000,102.839783 
	C598.000000,99.300285 598.011902,96.008049 597.997925,92.715919 
	C597.943970,80.038673 590.349060,66.771317 576.279541,62.524483 
	C561.804993,58.155407 542.788330,63.404789 535.691772,79.513130 
	C532.016235,87.856201 531.353271,96.325829 532.221619,104.874519 
	C532.931091,111.859062 535.593445,118.524841 540.491638,124.056824 
	C550.222046,135.046356 562.955017,134.895081 575.842773,133.515976 
	C579.315796,133.144333 582.592041,130.933807 586.507812,129.046661 
M608.000000,82.500183 
	C608.000000,99.252113 608.000000,116.004036 608.000000,132.730118 
	C614.282043,132.730118 620.017090,132.730118 626.000000,132.730118 
	C626.000000,118.834831 625.708130,105.197632 626.199341,91.588676 
	C626.326599,88.063675 628.244934,84.103546 630.496765,81.258400 
	C635.277771,75.217690 642.362915,76.967880 648.789734,77.341606 
	C648.789734,71.901154 648.789734,66.627380 648.789734,61.170219 
	C638.442505,60.189713 629.686401,61.940205 624.746521,72.469154 
	C624.746521,69.041588 624.746521,65.614029 624.746521,62.291306 
	C619.007080,62.291306 613.605347,62.291306 608.000000,62.291306 
	C608.000000,68.887589 608.000000,75.194000 608.000000,82.500183 
z"/>
<path fill="#000000" opacity="1.000000" stroke="none" 
	d="
M39.000000,172.000000 
	C26.360420,172.000000 13.720839,172.000000 1.000000,172.000000 
	C1.000000,116.645798 1.000000,61.291557 1.305763,5.201421 
	C2.193343,5.229203 2.809651,5.969241 3.351693,6.760175 
	C9.439221,15.642950 17.623089,20.139614 28.628767,20.069769 
	C59.958553,19.870943 91.290428,20.000065 122.621475,20.000124 
	C124.365143,20.000128 126.108803,20.000126 128.183929,20.000126 
	C126.191589,48.783318 134.557083,73.113815 155.110397,92.491806 
	C175.711395,111.914719 200.891769,117.643784 228.892242,114.506836 
	C222.397858,134.270630 216.198929,153.135315 210.000000,172.000000 
	C197.979111,172.000000 185.958206,172.000000 173.479263,171.612823 
	C174.680313,165.129990 177.331436,159.112061 177.816101,152.924438 
	C179.391190,132.815826 161.187790,114.292198 141.572388,114.690453 
	C126.222794,115.002106 112.354362,123.980484 107.422722,137.302475 
	C103.198318,148.714020 99.776672,160.422714 96.000000,172.000000 
	C83.979103,172.000000 71.958214,172.000000 59.479359,171.613159 
	C73.616920,127.264679 88.212448,83.303017 102.794586,39.381668 
	C72.918625,39.381668 43.572006,39.381668 14.119798,39.381668 
	C17.328238,50.437298 28.857809,58.909664 40.835926,58.160564 
	C52.609562,57.424248 64.465256,58.000011 76.802475,58.000011 
	C75.198570,62.722012 73.023544,67.047531 72.378082,71.590378 
	C71.685875,76.462158 69.423691,77.168358 65.173622,77.088287 
	C52.237103,76.844551 39.293072,76.999916 25.799854,76.999916 
	C32.802837,94.639557 46.908180,97.374489 63.517960,95.867851 
	C55.136230,121.894447 47.068115,146.947220 39.000000,172.000000 
z"/>
<path fill="#4CC38A" opacity="1.000000" stroke="none" 
	d="
M210.468414,172.000000 
	C216.198929,153.135315 222.397858,134.270630 228.892242,114.506836 
	C200.891769,117.643784 175.711395,111.914719 155.110397,92.491806 
	C134.557083,73.113815 126.191589,48.783318 128.183929,20.000126 
	C126.108803,20.000126 124.365143,20.000128 122.621475,20.000124 
	C91.290428,20.000065 59.958553,19.870943 28.628767,20.069769 
	C17.623089,20.139614 9.439221,15.642950 3.351693,6.760175 
	C2.809651,5.969241 2.193343,5.229203 1.305763,4.732763 
	C1.000000,3.668994 1.000000,2.337989 1.000000,1.003492 
	C83.020897,1.000000 165.041794,1.000000 247.531342,0.999999 
	C248.409149,1.648584 248.699280,2.734606 249.244537,2.882958 
	C275.471741,10.019011 291.070221,27.545036 297.538635,53.323887 
	C300.892090,66.688492 298.764923,79.863792 294.186707,92.938538 
	C285.094452,118.904778 276.702454,145.116226 268.010559,171.613159 
	C261.645599,172.000000 255.291214,172.000000 248.479248,171.613190 
	C258.262573,140.667221 269.075226,110.283409 278.521393,79.480545 
	C283.845673,62.118668 278.490906,46.207539 265.709686,33.484848 
	C255.842209,23.662598 243.040085,20.118603 229.366348,20.041441 
	C203.878403,19.897606 178.389053,20.000143 152.900299,20.000145 
	C151.322220,20.000145 149.744141,20.000145 147.063583,20.000145 
	C148.107651,29.202032 148.127274,37.745049 150.172440,45.771973 
	C155.508316,66.714371 168.496262,81.439240 188.410965,90.239708 
	C199.890549,95.312637 211.938461,95.710686 224.063736,95.957664 
	C234.181213,96.163757 244.306229,95.999924 254.786911,95.999924 
	C246.443161,121.582985 238.221573,146.791489 230.000000,172.000000 
	C223.645599,172.000000 217.291214,172.000000 210.468414,172.000000 
z"/>
<path fill="#000000" opacity="1.000000" stroke="none" 
	d="
M230.467941,172.000000 
	C238.221573,146.791489 246.443161,121.582985 254.786911,95.999924 
	C244.306229,95.999924 234.181213,96.163757 224.063736,95.957664 
	C211.938461,95.710686 199.890549,95.312637 188.410965,90.239708 
	C168.496262,81.439240 155.508316,66.714371 150.172440,45.771973 
	C148.127274,37.745049 148.107651,29.202032 147.063583,20.000145 
	C149.744141,20.000145 151.322220,20.000145 152.900299,20.000145 
	C178.389053,20.000143 203.878403,19.897606 229.366348,20.041441 
	C243.040085,20.118603 255.842209,23.662598 265.709686,33.484848 
	C278.490906,46.207539 283.845673,62.118668 278.521393,79.480545 
	C269.075226,110.283409 258.262573,140.667221 248.010834,171.613190 
	C242.311966,172.000000 236.623917,172.000000 230.467941,172.000000 
M252.990189,54.689194 
	C249.288879,41.328064 235.324646,40.396427 227.943985,47.703388 
	C222.658218,52.936340 222.645508,61.062641 227.159622,67.445999 
	C230.433807,72.076035 238.839066,74.010460 244.948441,71.540039 
	C250.921844,69.124596 254.038849,62.907093 252.990189,54.689194 
z"/>
<path fill="#4CC38A" opacity="1.000000" stroke="none" 
	d="
M39.468403,172.000000 
	C47.068115,146.947220 55.136230,121.894447 63.517960,95.867851 
	C46.908180,97.374489 32.802837,94.639557 25.799854,76.999916 
	C39.293072,76.999916 52.237103,76.844551 65.173622,77.088287 
	C69.423691,77.168358 71.685875,76.462158 72.378082,71.590378 
	C73.023544,67.047531 75.198570,62.722012 76.802475,58.000011 
	C64.465256,58.000011 52.609562,57.424248 40.835926,58.160564 
	C28.857809,58.909664 17.328238,50.437298 14.119798,39.381668 
	C43.572006,39.381668 72.918625,39.381668 102.794586,39.381668 
	C88.212448,83.303017 73.616920,127.264679 59.010700,171.613159 
	C52.645603,172.000000 46.291203,172.000000 39.468403,172.000000 
z"/>
<path fill="#4CC38A" opacity="1.000000" stroke="none" 
	d="
M96.468399,172.000000 
	C99.776672,160.422714 103.198318,148.714020 107.422722,137.302475 
	C112.354362,123.980484 126.222794,115.002106 141.572388,114.690453 
	C161.187790,114.292198 179.391190,132.815826 177.816101,152.924438 
	C177.331436,159.112061 174.680313,165.129990 173.010605,171.612823 
	C166.312363,172.000000 159.624710,172.000000 152.469971,171.602280 
	C153.533630,166.419327 155.054474,161.630905 156.597183,156.849533 
	C159.914352,146.568466 153.237015,138.099899 145.610809,135.298965 
	C137.429596,132.294205 126.904816,137.627655 124.089920,146.031693 
	C121.211044,154.626755 118.682121,163.339035 116.000000,172.000000 
	C109.645599,172.000000 103.291206,172.000000 96.468399,172.000000 
z"/>
<path fill="#000000" opacity="1.000000" stroke="none" 
	d="
M116.468658,172.000000 
	C118.682121,163.339035 121.211044,154.626755 124.089920,146.031693 
	C126.904816,137.627655 137.429596,132.294205 145.610809,135.298965 
	C153.237015,138.099899 159.914352,146.568466 156.597183,156.849533 
	C155.054474,161.630905 153.533630,166.419327 152.001434,171.602280 
	C140.312439,172.000000 128.624878,172.000000 116.468658,172.000000 
z"/>
<path fill="#FFFFFF" opacity="1.000000" stroke="none" 
	d="
M748.000000,72.000000 
	C748.000000,60.862957 748.000000,50.225910 748.000000,39.000000 
	C761.112122,39.000000 774.032898,38.835678 786.945312,39.092419 
	C791.250244,39.178017 795.774719,39.676247 799.785034,41.128502 
	C816.687805,47.249561 819.532654,68.473328 809.217285,78.114288 
	C806.614014,80.547462 802.987915,81.886322 800.370667,83.413612 
	C802.827332,84.581680 806.313904,85.616257 809.000854,87.687897 
	C811.828552,89.868088 814.484314,92.730156 816.122925,95.865189 
	C817.778870,99.033394 818.641479,102.862251 818.900085,106.469910 
	C819.771667,118.627251 809.867371,131.168884 797.620972,131.793961 
	C781.301575,132.626938 764.907654,131.999710 748.000000,131.999710 
	C748.000000,112.666573 748.000000,92.583290 748.000000,72.000000 
M766.000000,113.380760 
	C766.000000,114.818604 766.000000,116.256447 766.000000,118.469093 
	C774.662476,117.959679 782.840698,117.741402 790.954651,116.901817 
	C795.724304,116.408287 799.044067,113.031181 799.851501,108.451492 
	C800.746216,103.376549 800.118652,98.176018 795.072327,95.033539 
	C786.032776,89.404434 776.011963,91.365097 766.000000,91.007126 
	C766.000000,98.506004 766.000000,105.453194 766.000000,113.380760 
M766.057312,53.733387 
	C766.057312,61.784473 766.057312,69.835556 766.057312,77.999977 
	C772.293884,77.999977 777.925842,78.060738 783.556030,77.984985 
	C791.029358,77.884430 796.672791,72.777840 797.023987,66.122894 
	C797.328491,60.351273 793.153503,54.083309 784.889282,53.954540 
	C778.838135,53.860252 772.793213,53.370281 766.057312,53.733387 
z"/>
<path fill="#FFFFFF" opacity="1.000000" stroke="none" 
	d="
M657.000000,86.000000 
	C657.000000,70.202744 657.000000,54.905483 657.000000,39.000000 
	C669.087036,39.000000 681.002563,39.158966 692.911377,38.943638 
	C700.739014,38.802105 707.984558,40.521984 714.758545,44.327133 
	C727.760254,51.630611 733.694031,63.331139 734.944824,77.677414 
	C735.700989,86.350784 735.753296,95.028923 733.030090,103.519653 
	C727.838196,119.707420 718.703674,128.334106 701.585510,131.812775 
	C694.415649,133.269821 686.830017,132.794785 679.428040,132.963669 
	C672.133911,133.130112 664.832947,133.000000 657.000000,133.000000 
	C657.000000,117.333702 657.000000,101.916847 657.000000,86.000000 
M711.038147,63.406979 
	C709.973083,62.266014 709.041626,60.951820 707.821899,60.011444 
	C697.888550,52.352844 686.395386,54.089111 675.325928,54.138466 
	C675.325928,75.419426 675.325928,96.141785 675.325928,117.000000 
	C681.632568,117.000000 687.750061,117.779984 693.554688,116.767105 
	C698.721436,115.865540 704.060608,113.739532 708.391602,110.786766 
	C714.659668,106.513283 716.050537,99.359367 717.165588,92.067871 
	C718.727112,81.857681 717.381042,72.551956 711.038147,63.406979 
z"/>
<path fill="#FFFFFF" opacity="1.000000" stroke="none" 
	d="
M425.659180,100.999969 
	C417.365234,101.000000 409.535919,101.000000 401.305603,101.000000 
	C401.305603,111.480942 401.305603,121.892433 401.305603,132.650909 
	C395.182709,132.650909 389.437592,132.650909 383.344543,132.650909 
	C383.344543,101.827774 383.344543,70.754768 383.344543,39.280762 
	C384.337891,39.201298 385.595886,39.015350 386.854187,39.013199 
	C399.520752,38.991535 412.203979,38.591019 424.849579,39.106071 
	C439.828003,39.716133 451.034698,50.866714 452.002655,66.106895 
	C452.633087,76.032570 451.181854,85.353851 443.736206,92.708748 
	C438.882355,97.503441 432.771027,99.883492 425.659180,100.999969 
M408.512543,87.000000 
	C410.679108,86.999969 412.848206,87.068779 415.011780,86.988304 
	C425.891724,86.583656 430.648712,83.231346 433.492096,74.031555 
	C435.603333,67.200523 432.482544,58.074699 425.772675,56.249989 
	C417.924225,54.115635 409.503998,54.083744 401.299683,53.136055 
	C401.299683,65.334152 401.299683,76.073784 401.299683,87.000000 
	C403.579437,87.000000 405.560852,87.000000 408.512543,87.000000 
z"/>
<path fill="#FFFFFF" opacity="1.000000" stroke="none" 
	d="
M521.830139,102.999855 
	C506.368805,102.999992 491.393555,102.999992 476.448242,102.999992 
	C475.529144,111.736336 483.725128,122.741493 495.656647,119.953255 
	C498.790985,119.220795 502.768860,118.055199 504.380066,115.721817 
	C507.373505,111.386696 511.157043,111.869858 515.090393,112.067749 
	C517.990540,112.213676 520.860291,112.963760 523.755920,113.446693 
	C523.095215,124.606949 511.531677,132.896561 500.826660,133.762756 
	C493.632996,134.344818 486.025909,133.595505 479.014801,131.819427 
	C466.769470,128.717407 461.168823,118.590149 459.313141,107.339554 
	C457.716949,97.662415 457.988159,87.643555 462.854523,78.155556 
	C470.132965,63.964565 483.440338,59.220680 497.552399,61.245094 
	C512.925415,63.450394 521.820129,72.743362 523.977844,88.951271 
	C524.473206,92.672638 524.858215,96.433769 524.865601,100.177437 
	C524.867432,101.116524 523.210693,102.058868 521.830139,102.999855 
M494.490601,90.000000 
	C498.938202,90.000000 503.385773,90.000000 507.890808,90.000000 
	C506.665985,81.802193 500.869598,75.532562 494.559296,74.978455 
	C486.532593,74.273636 478.254913,78.212807 476.133911,90.000000 
	C481.970154,90.000000 487.732819,90.000000 494.490601,90.000000 
z"/>
<path fill="#FFFFFF" opacity="1.000000" stroke="none" 
	d="
M586.233215,129.307022 
	C582.592041,130.933807 579.315796,133.144333 575.842773,133.515976 
	C562.955017,134.895081 550.222046,135.046356 540.491638,124.056824 
	C535.593445,118.524841 532.931091,111.859062 532.221619,104.874519 
	C531.353271,96.325829 532.016235,87.856201 535.691772,79.513130 
	C542.788330,63.404789 561.804993,58.155407 576.279541,62.524483 
	C590.349060,66.771317 597.943970,80.038673 597.997925,92.715919 
	C598.011902,96.008049 598.000000,99.300285 598.000000,102.839783 
	C581.690552,102.839783 565.749451,102.839783 549.817993,102.839783 
	C549.584106,109.822975 552.188171,115.099045 558.037781,118.517181 
	C564.188171,122.111053 574.821960,121.339020 578.725708,115.427605 
	C581.539368,111.166847 584.945312,111.938248 588.510254,112.081429 
	C591.416626,112.198166 594.297668,112.944809 597.196411,113.413193 
	C596.133972,120.712036 593.439758,124.713707 586.233215,129.307022 
M575.349731,90.000000 
	C577.151367,90.000000 578.952942,90.000000 580.725525,90.000000 
	C581.395142,81.307365 573.158508,74.307838 564.871033,74.943245 
	C556.885132,75.555527 549.632202,82.826897 550.578430,90.000000 
	C558.496277,90.000000 566.441895,90.000000 575.349731,90.000000 
z"/>
<path fill="#FFFFFF" opacity="1.000000" stroke="none" 
	d="
M608.000000,82.000305 
	C608.000000,75.194000 608.000000,68.887589 608.000000,62.291306 
	C613.605347,62.291306 619.007080,62.291306 624.746521,62.291306 
	C624.746521,65.614029 624.746521,69.041588 624.746521,72.469154 
	C629.686401,61.940205 638.442505,60.189713 648.789734,61.170219 
	C648.789734,66.627380 648.789734,71.901154 648.789734,77.341606 
	C642.362915,76.967880 635.277771,75.217690 630.496765,81.258400 
	C628.244934,84.103546 626.326599,88.063675 626.199341,91.588676 
	C625.708130,105.197632 626.000000,118.834831 626.000000,132.730118 
	C620.017090,132.730118 614.282043,132.730118 608.000000,132.730118 
	C608.000000,116.004036 608.000000,99.252113 608.000000,82.000305 
z"/>
<path fill="#4CC38A" opacity="1.000000" stroke="none" 
	d="
M252.994812,55.084953 
	C254.038849,62.907093 250.921844,69.124596 244.948441,71.540039 
	C238.839066,74.010460 230.433807,72.076035 227.159622,67.445999 
	C222.645508,61.062641 222.658218,52.936340 227.943985,47.703388 
	C235.324646,40.396427 249.288879,41.328064 252.994812,55.084953 
z"/>
<path fill="#000000" opacity="1.000000" stroke="none" 
	d="
M766.000000,112.890579 
	C766.000000,105.453194 766.000000,98.506004 766.000000,91.007126 
	C776.011963,91.365097 786.032776,89.404434 795.072327,95.033539 
	C800.118652,98.176018 800.746216,103.376549 799.851501,108.451492 
	C799.044067,113.031181 795.724304,116.408287 790.954651,116.901817 
	C782.840698,117.741402 774.662476,117.959679 766.000000,118.469093 
	C766.000000,116.256447 766.000000,114.818604 766.000000,112.890579 
z"/>
<path fill="#000000" opacity="1.000000" stroke="none" 
	d="
M766.401367,53.395027 
	C772.793213,53.370281 778.838135,53.860252 784.889282,53.954540 
	C793.153503,54.083309 797.328491,60.351273 797.023987,66.122894 
	C796.672791,72.777840 791.029358,77.884430 783.556030,77.984985 
	C777.925842,78.060738 772.293884,77.999977 766.057312,77.999977 
	C766.057312,69.835556 766.057312,61.784473 766.401367,53.395027 
z"/>
<path fill="#000000" opacity="1.000000" stroke="none" 
	d="
M711.270691,63.701996 
	C717.381042,72.551956 718.727112,81.857681 717.165588,92.067871 
	C716.050537,99.359367 714.659668,106.513283 708.391602,110.786766 
	C704.060608,113.739532 698.721436,115.865540 693.554688,116.767105 
	C687.750061,117.779984 681.632568,117.000000 675.325928,117.000000 
	C675.325928,96.141785 675.325928,75.419426 675.325928,54.138466 
	C686.395386,54.089111 697.888550,52.352844 707.821899,60.011444 
	C709.041626,60.951820 709.973083,62.266014 711.270691,63.701996 
z"/>
<path fill="#000000" opacity="1.000000" stroke="none" 
	d="
M408.027405,87.000000 
	C405.560852,87.000000 403.579437,87.000000 401.299683,87.000000 
	C401.299683,76.073784 401.299683,65.334152 401.299683,53.136055 
	C409.503998,54.083744 417.924225,54.115635 425.772675,56.249989 
	C432.482544,58.074699 435.603333,67.200523 433.492096,74.031555 
	C430.648712,83.231346 425.891724,86.583656 415.011780,86.988304 
	C412.848206,87.068779 410.679108,86.999969 408.027405,87.000000 
z"/>
<path fill="#000000" opacity="1.000000" stroke="none" 
	d="
M493.993042,90.000000 
	C487.732819,90.000000 481.970154,90.000000 476.133911,90.000000 
	C478.254913,78.212807 486.532593,74.273636 494.559296,74.978455 
	C500.869598,75.532562 506.665985,81.802193 507.890808,90.000000 
	C503.385773,90.000000 498.938202,90.000000 493.993042,90.000000 
z"/>
<path fill="#000000" opacity="1.000000" stroke="none" 
	d="
M574.868591,90.000000 
	C566.441895,90.000000 558.496277,90.000000 550.578430,90.000000 
	C549.632202,82.826897 556.885132,75.555527 564.871033,74.943245 
	C573.158508,74.307838 581.395142,81.307365 580.725525,90.000000 
	C578.952942,90.000000 577.151367,90.000000 574.868591,90.000000 
z"/>
</svg>