<svg  xmlns="http://www.w3.org/2000/svg" xmlnsXlink="http://www.w3.org/1999/xlink"
	 width="100%" viewBox="0 0 3964 1762" enable-background="new 0 0 3964 1762" xmlSpace="preserve">
<path fill="#000000" opacity="1.000000" stroke="none" 
	d="
M2434.000000,1764.000000 
	C1622.666992,1764.000000 812.333923,1764.000000 2.000652,1764.000000 
	C2.000435,1176.667114 2.000435,589.334351 2.000217,2.000750 
	C2.999500,2.000000 3.998999,2.000000 4.998499,2.000000 
	C1325.331299,2.000000 2645.664307,2.000000 3965.997803,2.000000 
	C3965.998535,589.332153 3965.998535,1176.664307 3965.999268,1763.998291 
	C3455.666748,1764.000000 2945.333252,1764.000000 2434.000000,1764.000000 
M420.309479,1261.000000 
	C420.309418,1272.331665 420.127716,1283.666992 420.360748,1294.993774 
	C420.590668,1306.169800 419.302887,1317.444214 421.362946,1329.388062 
	C435.606323,1329.768799 449.037445,1329.933716 463.153107,1329.297974 
	C463.372070,1324.337158 463.664703,1320.744873 463.668427,1317.152466 
	C463.703766,1282.823120 463.689178,1248.493774 463.692017,1214.164429 
	C463.692352,1210.164917 463.910553,1206.153442 463.669983,1202.169189 
	C463.386505,1197.474243 465.471649,1194.724854 469.694244,1193.008301 
	C474.935944,1190.877563 480.069458,1188.479126 485.238708,1186.171631 
	C532.068176,1165.266113 578.952393,1144.481079 625.665405,1123.318359 
	C633.217407,1119.896973 639.466370,1119.652832 647.250671,1123.227783 
	C697.179626,1146.157837 747.312378,1168.648071 797.528564,1190.944214 
	C804.829773,1194.186035 807.989685,1198.040283 807.873291,1206.490723 
	C807.368652,1243.146118 807.642822,1279.812622 807.682556,1316.474976 
	C807.686829,1320.383301 808.009766,1324.291504 808.235229,1329.321777 
	C822.465027,1329.782349 835.861633,1330.020020 850.339905,1329.153931 
	C850.339905,1324.300415 850.339966,1320.691650 850.339966,1317.082886 
	C850.339905,1271.088257 850.123657,1225.091675 850.539246,1179.100830 
	C850.613892,1170.835571 847.906494,1166.616455 840.464722,1163.341187 
	C798.710938,1144.964722 757.134338,1126.184937 715.530334,1107.469360 
	C707.208496,1103.725830 699.029663,1099.664429 689.367004,1095.076294 
	C693.595764,1092.791016 696.101196,1091.217041 698.776428,1090.023926 
	C745.610413,1069.134033 792.398193,1048.137695 839.379395,1027.583496 
	C847.463562,1024.046753 850.630432,1019.718262 850.585022,1010.458435 
	C850.169312,925.803711 850.340637,841.146118 850.339355,756.489319 
	C850.339355,754.822876 850.165894,753.139099 850.345825,751.493225 
	C850.907532,746.354919 848.424683,743.369202 843.817627,741.691528 
	C842.258057,741.123535 840.779724,740.333252 839.262268,739.649048 
	C792.511169,718.570618 745.754944,697.503601 699.020874,676.387451 
	C696.257324,675.138672 693.671814,673.495728 689.096130,670.993042 
	C744.182190,646.367188 796.979980,622.764282 849.282837,599.382629 
	C851.298279,585.093994 850.687378,446.379547 848.721008,438.959686 
	C838.098755,436.782928 815.764771,437.166382 807.659302,439.970642 
	C807.659302,443.600311 807.659485,447.555328 807.659302,451.510345 
	C807.657410,488.172729 807.482117,524.836670 807.805115,561.496155 
	C807.867004,568.514771 805.615051,572.327393 799.179138,575.170715 
	C746.788635,598.315369 694.499146,621.689514 642.252869,645.158325 
	C636.980286,647.526672 632.629578,647.467163 627.243896,645.018677 
	C575.710999,621.589844 524.067566,598.402527 472.351959,575.379272 
	C466.075226,572.584900 463.460663,569.043823 463.529633,561.886780 
	C463.886108,524.894531 463.707397,487.896973 463.666687,450.901367 
	C463.662384,446.991211 463.340210,443.081360 463.177582,439.442108 
	C452.768311,436.786987 428.743073,437.059387 420.903870,439.828766 
	C420.717712,442.264954 420.345001,444.884216 420.343018,447.503784 
	C420.307037,494.831543 420.495422,542.160706 420.128906,589.485657 
	C420.071350,596.920044 423.207214,599.980774 429.340729,602.720459 
	C476.163635,623.635742 522.871643,644.808411 569.597473,665.940674 
	C573.101807,667.525574 576.467590,669.416870 581.871643,672.172058 
	C576.435303,674.833740 573.031982,676.625854 569.529236,678.196106 
	C522.732300,699.174988 475.979004,720.253418 429.047119,740.926270 
	C422.604279,743.764282 420.026001,747.143921 420.156433,754.278015 
	C420.576782,777.267639 420.309479,800.269775 420.309570,823.267090 
	C420.309845,886.259766 420.357544,949.252441 420.238342,1012.244934 
	C420.226837,1018.334717 420.998444,1022.670471 427.619415,1025.598511 
	C475.735718,1046.876953 523.669495,1068.568481 571.636902,1090.182861 
	C574.727783,1091.575562 577.618286,1093.413330 582.164490,1095.897827 
	C576.535034,1098.470215 572.962219,1100.136963 569.362183,1101.742554 
	C522.526611,1122.630859 475.725311,1143.596924 428.804565,1164.292236 
	C422.389191,1167.121704 420.065125,1170.985107 420.161987,1178.011475 
	C420.533997,1205.003174 420.310760,1232.003174 420.309479,1261.000000 
M1930.931885,916.336426 
	C1937.459717,916.246704 1943.987427,916.157043 1950.159912,916.072266 
	C1952.712036,902.953918 1952.136108,678.680054 1949.624756,670.890930 
	C1946.925781,670.715027 1943.990234,670.365845 1941.053955,670.358093 
	C1922.063110,670.307678 1903.065186,670.622253 1884.084473,670.178345 
	C1877.168091,670.016479 1873.297485,672.579956 1869.713623,678.308655 
	C1835.982666,732.225586 1801.986694,785.976868 1768.034912,839.755493 
	C1766.031128,842.929199 1763.747070,845.925903 1761.125977,849.673279 
	C1758.992065,846.790100 1757.728027,845.276550 1756.673584,843.628845 
	C1721.316772,788.375244 1685.912964,733.151428 1650.746582,677.776794 
	C1647.311890,672.368347 1643.594116,670.036499 1637.057739,670.182617 
	C1618.076294,670.606995 1599.078979,670.297485 1580.088257,670.369507 
	C1576.905518,670.381592 1573.724487,670.860779 1570.670410,671.113647 
	C1570.232910,673.536804 1569.794067,674.835510 1569.793213,676.134460 
	C1569.741455,753.763794 1569.721313,831.393188 1569.734741,909.022522 
	C1569.734985,910.664307 1570.136597,912.309631 1570.405640,913.944275 
	C1570.452393,914.228455 1570.759521,914.479492 1570.971802,914.723816 
	C1571.189819,914.974609 1571.438843,915.198547 1571.744873,915.505005 
	C1587.491455,915.505005 1603.298584,915.505005 1620.451416,915.505005 
	C1620.451416,853.342651 1620.451416,791.993591 1620.451416,730.644531 
	C1621.246216,730.406616 1622.041016,730.168701 1622.835693,729.930786 
	C1627.309204,736.737122 1631.835938,743.509094 1636.247681,750.355164 
	C1670.700806,803.817627 1705.169189,857.270386 1739.490723,910.817261 
	C1741.923828,914.613220 1744.599609,916.502747 1749.124146,916.365112 
	C1756.113892,916.152466 1763.149536,915.897949 1770.102783,916.451538 
	C1777.346436,917.028259 1781.513550,914.087219 1785.341919,908.023132 
	C1820.359131,852.555237 1855.674194,797.275330 1890.927734,741.956787 
	C1893.153809,738.463745 1895.593262,735.106628 1897.933350,731.686340 
	C1898.725830,731.907654 1899.518311,732.128967 1900.310791,732.350281 
	C1900.310791,735.847778 1900.310791,739.345337 1900.310791,742.842834 
	C1900.311279,796.151001 1900.296997,849.459229 1900.341187,902.767395 
	C1900.344604,906.967468 1900.755859,911.167175 1901.028931,916.336609 
	C1911.053589,916.336609 1920.005493,916.336609 1930.931885,916.336426 
M1425.000000,670.322998 
	C1379.674805,670.389832 1334.349609,670.454712 1289.024414,670.542969 
	C1288.380615,670.544250 1287.730225,670.814514 1287.096680,671.004822 
	C1286.789917,671.096985 1286.490967,671.263000 1286.232300,671.454773 
	C1285.967651,671.650818 1285.756714,671.919495 1285.517578,672.151672 
	C1283.229858,683.892090 1283.876831,908.304382 1286.218750,915.349854 
	C1299.788208,917.482544 1517.384277,916.712891 1524.530640,914.506897 
	C1526.671631,902.713379 1526.162231,876.305542 1523.297607,868.323120 
	C1519.383667,868.323120 1515.102783,868.323181 1510.821777,868.323120 
	C1456.828247,868.322571 1402.834595,868.340149 1348.841064,868.285583 
	C1344.687866,868.281433 1340.535156,867.768738 1336.650635,867.510254 
	C1334.720703,851.986328 1335.321899,821.873108 1337.850952,813.677734 
	C1341.771362,813.677734 1346.038330,813.677734 1350.305176,813.677734 
	C1401.632446,813.677307 1452.959595,813.697083 1504.286865,813.638489 
	C1508.454834,813.633789 1512.622437,813.092773 1516.964111,812.788757 
	C1516.964111,796.791687 1516.964111,781.957031 1516.964111,766.268982 
	C1512.064087,766.045776 1507.827759,765.688110 1503.591309,765.684875 
	C1452.264038,765.645752 1400.936890,765.672729 1349.609619,765.632690 
	C1345.387085,765.629395 1341.164673,765.262573 1336.461060,765.042114 
	C1336.461060,749.288818 1336.461060,734.510742 1336.461060,718.341431 
	C1341.444824,718.341431 1345.676147,718.341492 1349.907593,718.341492 
	C1403.901123,718.341064 1457.894775,718.356506 1511.888306,718.309265 
	C1516.096802,718.305603 1520.305176,717.863586 1525.425415,717.573608 
	C1525.654785,701.553894 1526.136353,686.481750 1525.193726,670.323120 
	C1491.527100,670.323120 1459.263550,670.323120 1425.000000,670.322998 
M2849.323730,718.336853 
	C2869.607910,718.992493 2889.896240,719.548950 2910.173828,720.371155 
	C2915.468994,720.585876 2920.771240,721.399414 2925.999756,722.332764 
	C2940.340820,724.892578 2943.077881,727.998718 2944.057861,742.730896 
	C2944.388916,747.710388 2944.154053,752.725220 2944.371826,757.715454 
	C2944.483154,760.271912 2945.022705,762.809814 2945.399902,765.584351 
	C2961.577148,765.584351 2977.054443,765.584351 2993.266846,765.584351 
	C2993.927246,746.949036 2995.032715,729.025635 2990.124268,711.488342 
	C2987.277832,701.318542 2981.503906,692.931580 2972.893799,686.445007 
	C2962.954346,678.957214 2951.536133,675.365601 2939.552002,674.129578 
	C2922.041504,672.323792 2904.441162,671.009705 2886.849121,670.469482 
	C2866.891602,669.856567 2846.882080,669.790710 2826.929932,670.484741 
	C2808.339111,671.131531 2789.751465,672.684387 2771.245605,674.630920 
	C2761.338135,675.673035 2751.689209,678.504089 2743.079834,684.108276 
	C2727.293213,694.384094 2720.672852,709.876038 2717.818115,727.609680 
	C2712.870361,758.344238 2713.031738,789.337646 2713.985352,820.276855 
	C2714.454590,835.504211 2716.061279,850.879150 2719.053223,865.806519 
	C2724.608887,893.524902 2740.328857,907.995239 2768.281250,912.126526 
	C2782.065186,914.163879 2796.044678,915.196045 2809.974854,915.852356 
	C2830.909668,916.838684 2851.876465,917.386902 2872.834473,917.556702 
	C2886.125000,917.664429 2899.472168,917.299805 2912.706299,916.144043 
	C2927.902344,914.817078 2943.300049,913.637207 2958.071533,910.127136 
	C2978.991699,905.155945 2990.791748,890.441589 2993.662109,869.209106 
	C2995.173584,858.026672 2995.537109,846.685730 2996.320068,835.409485 
	C2996.700439,829.926514 2996.853760,824.427734 2997.134521,818.415894 
	C2979.966309,818.415894 2963.849365,818.415894 2947.396240,818.415894 
	C2946.959473,820.660583 2946.449463,822.236389 2946.377686,823.831970 
	C2946.063232,830.816162 2945.864746,837.805725 2945.643555,844.794006 
	C2945.165771,859.880310 2941.375000,864.125671 2926.156006,865.704834 
	C2917.233887,866.630493 2908.261475,867.432068 2899.301270,867.560486 
	C2864.023193,868.066101 2828.737549,869.302185 2793.488037,866.263306 
	C2773.814941,864.567200 2769.931396,861.231201 2768.362549,841.668396 
	C2767.219238,827.416016 2765.745605,813.113159 2765.917480,798.850830 
	C2766.153320,779.258789 2767.020508,759.599243 2769.120850,740.130737 
	C2770.575928,726.641235 2775.223145,723.088745 2788.686035,722.003296 
	C2808.231689,720.427368 2827.831787,719.526855 2849.323730,718.336853 
M2473.571289,694.438171 
	C2433.104004,765.677185 2392.627930,836.911194 2352.212891,908.179749 
	C2351.010986,910.299438 2350.451416,912.783386 2349.137207,916.324646 
	C2366.752197,916.324646 2383.042725,916.070496 2399.317627,916.458862 
	C2405.228271,916.599915 2408.416260,914.136658 2411.040771,909.319763 
	C2416.935059,898.500305 2423.418945,887.994812 2429.097900,877.067932 
	C2431.936035,871.606567 2435.550293,869.552795 2441.670898,869.575623 
	C2492.330566,869.763733 2542.991699,869.777649 2593.651123,869.557617 
	C2599.837402,869.530762 2603.430664,871.788452 2606.227539,877.044556 
	C2611.858643,887.626160 2618.182861,897.844543 2623.648438,908.506409 
	C2626.592285,914.249390 2630.162109,916.778687 2636.875244,916.492798 
	C2649.850098,915.940186 2662.865479,916.371033 2675.863281,916.302917 
	C2678.716309,916.288025 2681.567139,915.891174 2685.643066,915.575378 
	C2683.675781,911.628296 2682.358154,908.666199 2680.773926,905.854309 
	C2656.415527,862.619812 2632.036621,819.396912 2607.632812,776.187927 
	C2589.289062,743.708862 2570.749268,711.338867 2552.669922,678.713562 
	C2549.134521,672.333435 2545.002930,669.878235 2537.717529,670.164856 
	C2523.408203,670.727844 2509.057373,670.519714 2494.731445,670.242371 
	C2489.439209,670.139893 2485.920898,671.711914 2483.508545,676.565063 
	C2480.696045,682.223694 2477.341064,687.612732 2473.571289,694.438171 
M2236.805420,756.081726 
	C2235.173340,753.182312 2233.544678,750.280823 2231.908447,747.383667 
	C2218.978760,724.489319 2205.950928,701.649597 2193.185059,678.664246 
	C2189.993652,672.917786 2186.332275,669.823364 2179.133057,670.148132 
	C2165.172852,670.778015 2151.150879,670.693787 2137.181396,670.178223 
	C2130.239990,669.922058 2126.178223,672.363403 2122.941650,678.373352 
	C2114.895508,693.314392 2106.356201,707.990173 2097.984131,722.754883 
	C2063.344971,783.843811 2028.685913,844.921326 1994.075806,906.026733 
	C1992.515381,908.781555 1991.364136,911.768005 1989.783325,915.159424 
	C1992.233765,915.690613 1993.484863,916.192383 1994.738159,916.198486 
	C2010.391113,916.274719 2026.046387,916.151245 2041.696655,916.379517 
	C2046.430298,916.448608 2048.945068,914.193726 2051.038086,910.388123 
	C2057.132568,899.307129 2063.660645,888.457275 2069.506836,877.249695 
	C2072.531494,871.450684 2076.499756,869.510254 2082.999023,869.542358 
	C2132.956787,869.789429 2182.916748,869.781921 2232.874756,869.553284 
	C2239.622314,869.522400 2243.961426,871.311951 2247.149902,877.599426 
	C2252.714111,888.572021 2259.314453,899.015381 2265.036865,909.913513 
	C2267.554443,914.708435 2270.811035,916.552429 2276.122070,916.405945 
	C2286.438965,916.121521 2296.769287,916.332275 2307.094238,916.335999 
	C2312.982666,916.338074 2318.871338,916.336365 2325.021973,916.336365 
	C2324.864990,914.106323 2325.108887,912.981567 2324.687012,912.230957 
	C2295.664551,860.590576 2266.588623,808.980225 2236.805420,756.081726 
M3328.836914,916.336365 
	C3333.685791,916.086914 3338.534668,915.837463 3343.112061,915.601990 
	C3345.604004,900.368652 3344.750244,678.342773 3342.364014,671.377686 
	C3329.288330,669.235596 3299.949951,669.883423 3292.311035,672.809021 
	C3292.311035,682.740601 3292.311035,693.035095 3292.311035,703.329529 
	C3292.311035,713.656860 3292.444824,723.986328 3292.273193,734.310852 
	C3292.104492,744.456909 3293.061279,754.693909 3291.548584,764.837891 
	C3288.699219,765.198059 3287.078125,765.581177 3285.456299,765.582336 
	C3229.156006,765.623047 3172.855713,765.644531 3116.555420,765.581787 
	C3114.062256,765.579041 3111.570068,764.761597 3108.339600,764.193970 
	C3108.339600,753.151855 3108.339844,742.856750 3108.339844,732.561707 
	C3108.339844,722.234375 3108.488770,711.904358 3108.297363,701.580566 
	C3108.109619,691.447388 3109.173828,681.208801 3107.434082,670.703247 
	C3090.059326,670.228516 3073.909912,669.972778 3058.060791,670.758362 
	C3055.639404,680.814636 3055.731201,906.746887 3058.103760,915.838562 
	C3074.310303,916.549194 3090.723877,916.860535 3108.409424,915.561279 
	C3108.409424,881.523193 3108.409424,848.376160 3108.409424,815.599060 
	C3117.912842,813.118469 3281.546631,812.986267 3291.741455,815.322937 
	C3291.921387,818.940796 3292.276123,822.842896 3292.283936,826.745667 
	C3292.335205,852.397278 3292.285645,878.049133 3292.341553,903.700745 
	C3292.349854,907.571594 3292.737793,911.441650 3293.006836,916.336731 
	C3304.998779,916.336731 3315.940918,916.336731 3328.836914,916.336365 
M962.508728,686.611145 
	C952.463745,682.162903 942.516357,677.471436 932.326782,673.383606 
	C928.122009,671.696716 923.405151,670.502563 918.907654,670.458069 
	C891.918457,670.191101 864.925171,670.300232 837.933472,670.358276 
	C835.152161,670.364197 832.371887,670.863953 829.591064,671.134644 
	C832.359558,674.708923 835.410217,676.520996 838.624817,677.969177 
	C894.478333,703.131592 950.285583,728.399109 1006.299927,753.198914 
	C1013.829773,756.532654 1016.561707,760.541809 1016.489990,768.800415 
	C1016.096375,814.116638 1016.287048,859.438049 1016.334717,904.757629 
	C1016.338806,908.634277 1016.764343,912.510559 1016.976746,916.094849 
	C1027.605347,918.443176 1059.594849,918.192078 1068.346436,915.596558 
	C1068.346436,911.665833 1068.346313,907.394897 1068.346436,903.124023 
	C1068.347778,857.804382 1068.481445,812.483948 1068.215088,767.165894 
	C1068.172607,759.941956 1070.137817,755.732605 1077.123047,752.664612 
	C1133.516113,727.895935 1189.757812,702.782532 1245.997192,677.665527 
	C1249.034302,676.309143 1252.839355,675.601562 1255.100342,671.196045 
	C1252.718384,670.828735 1251.179932,670.386780 1249.640747,670.384460 
	C1220.316406,670.339783 1190.991333,670.253296 1161.668579,670.466492 
	C1158.170776,670.491821 1154.491089,671.767883 1151.223877,673.208618 
	C1117.409058,688.119324 1083.621338,703.093750 1049.933838,718.289001 
	C1044.104370,720.918396 1039.153442,721.497803 1033.010254,718.600830 
	C1010.126953,707.809204 986.951416,697.637329 962.508728,686.611145 
M3413.658936,788.999939 
	C3413.658936,809.302246 3413.495605,829.606323 3413.705078,849.906433 
	C3413.916016,870.374939 3412.759521,890.892578 3414.493408,911.931946 
	C3431.930908,912.281128 3448.332764,913.167480 3464.483154,911.464294 
	C3466.918945,896.272278 3466.097168,674.392090 3463.514160,666.697388 
	C3447.357910,666.249329 3430.966064,665.832397 3413.658936,666.965149 
	C3413.658936,707.869934 3413.658936,747.434875 3413.658936,788.999939 
M2378.310059,1120.571655 
	C2364.951660,1103.979980 2351.655518,1087.337036 2338.158447,1070.858887 
	C2336.405273,1068.718384 2333.772949,1066.338257 2331.271729,1065.976196 
	C2326.547119,1065.292114 2321.621338,1065.994751 2316.667969,1066.123901 
	C2316.667969,1113.239258 2316.667969,1159.187134 2316.667969,1205.468506 
	C2323.739746,1205.468506 2330.445312,1205.468506 2337.698242,1205.468506 
	C2337.698242,1188.268921 2337.675049,1171.955811 2337.704590,1155.642578 
	C2337.733887,1139.532593 2337.570801,1123.414673 2337.844482,1104.956299 
	C2341.407715,1108.843628 2343.239502,1110.639648 2344.841797,1112.620850 
	C2368.284180,1141.602539 2391.962158,1170.400757 2414.916504,1199.764526 
	C2420.255371,1206.594482 2426.269775,1207.015381 2433.271973,1206.048950 
	C2435.028076,1205.806519 2437.152588,1203.698730 2437.907227,1201.934692 
	C2438.763184,1199.932861 2438.351318,1197.354492 2438.352295,1195.026733 
	C2438.369141,1155.694824 2438.365967,1116.363037 2438.359131,1077.031128 
	C2438.358887,1075.032227 2438.346924,1073.029297 2438.225342,1071.035278 
	C2438.038086,1067.965332 2436.426758,1066.357910 2433.313721,1065.741333 
	C2421.041260,1063.311279 2417.650879,1065.965454 2417.640869,1078.412231 
	C2417.620605,1104.078003 2417.676270,1129.743774 2417.573730,1155.409180 
	C2417.561523,1158.431274 2418.801025,1162.040894 2414.532471,1165.014038 
	C2402.631592,1150.408325 2390.925537,1136.041748 2378.310059,1120.571655 
M1036.866089,1206.351929 
	C1046.632935,1206.808594 1056.037109,1205.305786 1065.166016,1201.671631 
	C1079.874878,1195.815552 1087.136475,1184.489136 1087.455933,1169.300171 
	C1087.751831,1155.233643 1082.601440,1143.269165 1069.219971,1136.285278 
	C1067.564453,1135.421387 1066.067261,1134.254272 1064.130249,1132.988159 
	C1066.258545,1131.000610 1067.982178,1129.478149 1069.609009,1127.858398 
	C1087.202271,1110.341919 1082.454224,1081.215576 1059.701172,1071.406982 
	C1051.690552,1067.953613 1042.443970,1066.257568 1033.674438,1065.900635 
	C1014.075134,1065.102905 994.420959,1065.621216 974.789429,1065.684448 
	C971.940674,1065.693726 969.093384,1066.149048 966.437988,1066.381104 
	C964.574341,1083.618286 965.290527,1198.323364 967.201538,1205.536621 
	C967.805115,1205.736206 968.417969,1206.113892 969.032471,1206.116699 
	C990.989685,1206.216919 1012.946960,1206.281982 1036.866089,1206.351929 
M2639.066406,1200.195557 
	C2641.329834,1198.798340 2643.624023,1197.448120 2645.852051,1195.997070 
	C2680.907471,1173.169312 2685.568359,1125.304932 2665.051270,1095.434204 
	C2649.347900,1072.571045 2626.628906,1063.398071 2599.708252,1063.914429 
	C2580.882080,1064.275635 2563.611084,1069.878418 2549.550781,1083.005493 
	C2530.266113,1101.010620 2523.384521,1123.398926 2527.859131,1149.120972 
	C2532.225098,1174.219360 2546.042969,1192.384766 2569.834473,1202.147949 
	C2592.545654,1211.467651 2615.268799,1210.566528 2639.066406,1200.195557 
M2962.090332,1196.899902 
	C2971.036621,1200.326904 2979.712402,1205.264648 2988.975342,1206.924194 
	C3033.470947,1214.896851 3073.445557,1190.732422 3079.052246,1145.936523 
	C3082.427490,1118.967773 3074.015137,1095.942993 3052.081543,1078.983765 
	C3038.758057,1068.682007 3023.146973,1064.066528 3006.443359,1063.899902 
	C2983.149658,1063.667480 2962.581543,1070.749878 2946.541748,1088.414429 
	C2920.446533,1117.153442 2922.836914,1172.646484 2962.090332,1196.899902 
M1285.638916,1131.653076 
	C1285.990234,1138.279297 1285.432007,1145.106689 1286.846680,1151.497559 
	C1293.784668,1182.841553 1313.914917,1201.504028 1344.996338,1207.002563 
	C1398.067627,1216.391113 1438.128052,1180.882080 1435.632568,1132.111206 
	C1434.523560,1110.436768 1425.955078,1092.183594 1408.219238,1079.059814 
	C1392.043823,1067.090698 1373.666504,1062.824341 1353.674683,1064.228882 
	C1316.406738,1066.847656 1287.723145,1093.714355 1285.638916,1131.653076 
M2115.690430,1075.673706 
	C2115.690430,1072.721069 2115.690430,1069.768555 2115.690430,1066.232544 
	C2108.359863,1066.232544 2101.835449,1066.232544 2094.809082,1066.232544 
	C2094.809082,1112.876709 2094.809082,1159.042236 2094.809082,1205.780762 
	C2101.688477,1205.780762 2108.212891,1205.780762 2115.691406,1205.780762 
	C2115.691406,1195.359131 2115.614990,1185.430786 2115.712646,1175.504028 
	C2115.812500,1165.341797 2115.262207,1155.135132 2116.173828,1144.374878 
	C2143.181152,1144.541504 2168.962158,1143.898315 2195.640869,1144.803101 
	C2195.640869,1149.846924 2195.640625,1153.459839 2195.640869,1157.072632 
	C2195.641602,1170.064575 2195.575195,1183.057007 2195.665283,1196.048340 
	C2195.732910,1205.791016 2196.335938,1206.318115 2205.784668,1206.347046 
	C2207.449219,1206.352051 2209.115234,1206.309082 2210.778320,1206.237549 
	C2214.443848,1206.079834 2216.146729,1204.006592 2216.254150,1200.474365 
	C2216.324951,1198.144409 2216.353516,1195.812256 2216.354004,1193.481079 
	C2216.359619,1155.171387 2216.359375,1116.861816 2216.354004,1078.552124 
	C2216.353760,1076.220947 2216.324219,1073.888794 2216.256348,1071.558716 
	C2216.153564,1068.037720 2214.488281,1065.923706 2210.811279,1065.767822 
	C2208.815430,1065.683105 2206.814697,1065.617920 2204.818604,1065.661133 
	C2196.465820,1065.842041 2195.772217,1066.404419 2195.682373,1074.919312 
	C2195.545166,1087.909790 2195.684326,1100.903076 2195.612305,1113.894653 
	C2195.592773,1117.431519 2195.237305,1120.966553 2195.008789,1124.983032 
	C2168.251221,1124.983032 2142.489502,1124.983032 2115.691162,1124.983032 
	C2115.691162,1108.740234 2115.691162,1093.139404 2115.690430,1075.673706 
M1719.712891,1170.918579 
	C1720.182373,1162.091309 1718.629517,1153.138428 1721.037720,1143.330566 
	C1743.825439,1143.330566 1766.311768,1143.330566 1789.186279,1143.330566 
	C1789.186279,1137.017578 1789.186279,1131.829468 1789.186279,1125.689941 
	C1766.124146,1125.689941 1743.558228,1125.689941 1720.502686,1125.689941 
	C1720.502686,1111.322876 1720.502686,1097.915283 1720.502686,1083.399902 
	C1746.708130,1083.399902 1772.145142,1083.399902 1797.456055,1083.399902 
	C1797.456055,1077.143555 1797.456055,1072.030396 1797.456055,1066.283813 
	C1764.073853,1066.283813 1731.604980,1066.283813 1698.805420,1066.283813 
	C1698.805420,1112.974121 1698.805420,1159.141602 1698.805420,1205.795898 
	C1733.148682,1205.795898 1766.972656,1205.795898 1800.777344,1205.795898 
	C1800.777344,1199.787598 1800.777344,1194.380127 1800.777344,1188.290039 
	C1786.568481,1188.290039 1773.281128,1188.319214 1759.994019,1188.281982 
	C1746.815063,1188.245117 1733.636230,1188.141235 1719.712891,1188.062500 
	C1719.712891,1182.098145 1719.712891,1177.486572 1719.712891,1170.918579 
M3156.333008,1131.449463 
	C3155.621094,1154.217896 3162.195068,1174.315186 3179.411621,1189.770752 
	C3205.360840,1213.066162 3252.608154,1214.886230 3280.852539,1194.372192 
	C3284.099121,1192.014160 3285.844727,1189.630981 3285.779785,1185.415405 
	C3285.543701,1170.100342 3285.694580,1154.779541 3285.585938,1139.461670 
	C3285.574951,1137.927490 3284.793213,1136.398926 3284.407959,1135.008423 
	C3278.100830,1135.008423 3272.282227,1135.008423 3265.625000,1135.008423 
	C3265.625000,1147.984009 3265.267090,1160.280396 3265.764648,1172.542236 
	C3266.045410,1179.456543 3263.012207,1182.977539 3257.010742,1185.121338 
	C3242.814941,1190.192261 3228.629639,1191.209961 3214.044922,1186.468384 
	C3184.180908,1176.759155 3169.417725,1143.238525 3181.927490,1114.491943 
	C3195.707520,1082.825806 3238.113770,1074.035156 3265.168457,1092.325439 
	C3268.139648,1094.334106 3271.043213,1096.443237 3274.606689,1098.947388 
	C3278.923828,1094.385620 3282.871094,1090.214355 3287.455811,1085.369629 
	C3282.604004,1081.450806 3279.004395,1077.994873 3274.895508,1075.321777 
	C3259.128418,1065.064453 3241.479736,1062.563599 3223.241211,1064.409546 
	C3194.487549,1067.319824 3173.182129,1081.399902 3161.749756,1108.462891 
	C3158.950928,1115.088013 3158.156250,1122.559814 3156.333008,1131.449463 
M1888.432007,1172.449707 
	C1916.234497,1214.356689 1981.233643,1221.728516 2006.484619,1186.924072 
	C2002.783936,1182.110107 1999.211304,1177.462769 1995.350220,1172.440308 
	C1982.846436,1183.722046 1969.663574,1190.307983 1953.799561,1189.576782 
	C1937.877563,1188.843140 1923.838135,1183.477173 1913.328735,1171.019165 
	C1895.563110,1149.959473 1896.316162,1119.485474 1914.599487,1099.923828 
	C1930.113403,1083.325073 1964.430542,1072.266846 1995.098633,1099.201782 
	C1999.513794,1095.124146 2003.977783,1091.001465 2009.012817,1086.351318 
	C2005.118774,1082.846313 2002.343750,1080.015747 1999.238525,1077.611938 
	C1986.894409,1068.056152 1972.497803,1064.363403 1957.240234,1063.993652 
	C1934.291748,1063.437256 1913.709351,1069.806763 1897.966797,1087.321655 
	C1877.226685,1110.396484 1873.621948,1142.130493 1888.432007,1172.449707 
M3422.916992,1132.265381 
	C3410.651123,1112.076660 3398.422607,1091.864990 3386.064697,1071.732544 
	C3384.741211,1069.575806 3382.852295,1066.484497 3380.905762,1066.225220 
	C3374.294922,1065.344727 3367.477783,1064.838501 3360.325439,1066.854370 
	C3361.979980,1069.894775 3363.000732,1071.983521 3364.208252,1073.958008 
	C3379.655273,1099.218506 3395.000244,1124.543213 3410.695801,1149.648682 
	C3414.205322,1155.262329 3415.987305,1160.808716 3415.730957,1167.425415 
	C3415.357178,1177.068970 3415.554688,1186.738525 3415.660645,1196.395508 
	C3415.764404,1205.869995 3416.383545,1206.379395 3426.102051,1206.359741 
	C3426.768066,1206.358398 3427.435547,1206.380249 3428.100098,1206.349487 
	C3435.326904,1206.015747 3436.166260,1205.396118 3436.300781,1198.188599 
	C3436.499268,1187.535156 3436.520264,1176.872070 3436.298828,1166.219727 
	C3436.190918,1161.019897 3437.535156,1156.628662 3440.290039,1152.169556 
	C3456.201172,1126.415161 3471.860840,1100.505249 3487.562256,1074.621704 
	C3489.043701,1072.179810 3490.226074,1069.556519 3491.933105,1066.276855 
	C3488.173828,1066.028076 3485.215088,1066.000244 3482.305908,1065.607178 
	C3474.511230,1064.554688 3469.738281,1067.446899 3465.657471,1074.595703 
	C3454.280762,1094.525391 3441.937988,1113.904297 3429.927490,1133.470459 
	C3429.162354,1134.717285 3427.977295,1135.706177 3426.710449,1137.125122 
	C3425.393555,1135.552002 3424.558594,1134.554688 3422.916992,1132.265381 
M1501.675903,1071.946289 
	C1501.675903,1075.545410 1501.675903,1079.144531 1501.675903,1083.830811 
	C1518.190674,1083.830811 1533.679688,1083.830811 1550.242676,1083.830811 
	C1550.242676,1125.050293 1550.242676,1165.195068 1550.242676,1206.311035 
	C1555.610229,1206.311035 1559.882446,1206.312744 1564.154663,1206.310547 
	C1568.252563,1206.308472 1570.280640,1204.241089 1570.300903,1200.157593 
	C1570.314087,1197.491699 1570.366943,1194.825684 1570.367310,1192.159790 
	C1570.372314,1159.830200 1570.354126,1127.500610 1570.394897,1095.171021 
	C1570.399414,1091.641846 1570.734741,1088.113037 1570.968262,1083.581299 
	C1587.378906,1083.581299 1602.904785,1083.581299 1618.920044,1083.581299 
	C1618.920044,1077.127197 1618.920044,1071.763184 1618.920044,1066.060547 
	C1615.197998,1065.896729 1612.226562,1065.654785 1609.255005,1065.652100 
	C1577.258789,1065.624146 1545.262451,1065.629028 1513.266235,1065.643555 
	C1510.937378,1065.644653 1508.384521,1065.226562 1506.346436,1066.036377 
	C1504.534180,1066.756348 1503.292236,1068.911743 1501.675903,1071.946289 
M581.000000,1243.812012 
	C639.620300,1243.812134 698.240601,1243.814575 756.860901,1243.806396 
	C760.190613,1243.805908 763.520325,1243.714478 766.850098,1243.672607 
	C771.716187,1243.611450 774.165344,1241.297119 774.148804,1236.285767 
	C774.130127,1230.620239 772.617615,1228.880005 766.421265,1228.323975 
	C764.105774,1228.116333 761.761963,1228.194092 759.431030,1228.193970 
	C675.830444,1228.188599 592.229858,1228.187622 508.629242,1228.197754 
	C505.966492,1228.197998 503.300964,1228.265869 500.641602,1228.399658 
	C496.019897,1228.631958 494.382874,1231.440186 494.342499,1235.713257 
	C494.292419,1241.010864 495.815430,1242.993530 501.070709,1243.603638 
	C503.704742,1243.909668 506.392029,1243.802612 509.055298,1243.804077 
	C532.370178,1243.816650 555.685120,1243.811401 581.000000,1243.812012 
M773.956421,450.516327 
	C773.445862,441.005524 773.151428,440.661865 764.661804,440.243347 
	C762.666565,440.144989 760.663574,440.190216 758.664185,440.190155 
	C675.684875,440.188049 592.705505,440.187256 509.726196,440.192841 
	C507.060760,440.192993 504.395447,440.272980 501.729889,440.295135 
	C496.875183,440.335449 494.367554,442.614410 494.330750,447.626221 
	C494.289551,453.232635 495.944672,455.185303 501.984985,455.682068 
	C504.966248,455.927216 507.979706,455.808258 510.978577,455.808441 
	C592.958130,455.813385 674.937744,455.814117 756.917297,455.806213 
	C760.248779,455.805908 763.661194,456.139099 766.884766,455.524445 
	C769.235413,455.076202 771.337158,453.322662 773.956421,450.516327 
M2854.660645,1206.335449 
	C2856.896973,1206.106689 2859.133545,1205.877930 2861.786865,1205.606567 
	C2861.786865,1199.910522 2861.786865,1194.761230 2861.786865,1188.127686 
	C2836.566406,1188.127686 2811.862793,1188.127686 2786.424561,1188.127686 
	C2786.192139,1146.587280 2786.524902,1106.505737 2786.231934,1066.431885 
	C2778.687256,1066.431885 2772.573730,1066.431885 2766.369385,1066.431885 
	C2766.369385,1113.271606 2766.369385,1159.335938 2766.369385,1206.340942 
	C2795.625488,1206.340942 2824.176514,1206.340942 2854.660645,1206.335449 
M732.999451,1307.751099 
	C659.095215,1307.751587 585.191040,1307.750122 511.286804,1307.758667 
	C507.958832,1307.759033 504.630920,1307.855347 501.302856,1307.896729 
	C496.868713,1307.951904 494.564331,1310.081421 494.483215,1314.621948 
	C494.393463,1319.645386 496.051910,1321.550293 501.547241,1322.091309 
	C503.858459,1322.318726 506.203308,1322.239990 508.532867,1322.240112 
	C592.424133,1322.246094 676.315430,1322.247070 760.206726,1322.234497 
	C762.867493,1322.234131 765.532593,1322.152710 768.188049,1321.986816 
	C772.285095,1321.730957 773.940247,1319.300415 774.010010,1315.378906 
	C774.100464,1310.291504 772.547302,1308.164917 766.951538,1307.983276 
	C756.309326,1307.637451 745.650635,1307.799316 732.999451,1307.751099 
M585.000000,1267.751099 
	C560.032410,1267.751709 535.064819,1267.747070 510.097229,1267.760132 
	C507.102356,1267.761719 504.107574,1267.861816 501.112701,1267.913696 
	C496.590149,1267.992188 494.503632,1270.362549 494.478180,1274.812744 
	C494.453644,1279.097778 496.053314,1281.901611 500.739380,1282.048828 
	C503.732819,1282.142700 506.727997,1282.238281 509.722382,1282.238647 
	C592.614868,1282.248779 675.507324,1282.248779 758.399841,1282.239502 
	C761.394531,1282.239136 764.389404,1282.136963 767.383850,1282.068237 
	C771.861145,1281.965576 774.010864,1279.698486 774.028076,1275.188477 
	C774.044556,1270.864014 772.414001,1268.122803 767.759888,1267.966797 
	C764.434143,1267.855347 761.105713,1267.762329 757.778503,1267.761597 
	C700.852356,1267.748535 643.926147,1267.751099 585.000000,1267.751099 
M511.199432,536.248535 
	C592.771545,536.248291 674.343628,536.249756 755.915710,536.241699 
	C759.577209,536.241333 763.256409,536.364807 766.896057,536.058472 
	C772.533142,535.583984 774.055542,533.755493 774.018616,528.673889 
	C773.985352,524.093384 771.648315,522.017151 767.244995,521.919861 
	C764.582764,521.860962 761.920410,521.761230 759.258118,521.760986 
	C675.688354,521.752686 592.118652,521.753357 508.548920,521.759705 
	C506.219025,521.759888 503.873993,521.681091 501.562256,521.907349 
	C496.055084,522.446350 494.397644,524.341309 494.482849,529.364563 
	C494.559784,533.900391 496.851013,536.043518 501.291443,536.103577 
	C503.954132,536.139587 506.616486,536.199280 511.199432,536.248535 
M521.031860,495.782379 
	C599.621460,495.782562 678.211121,495.785461 756.800720,495.774292 
	C760.462097,495.773773 764.126831,495.723969 767.783997,495.561310 
	C772.354187,495.358002 774.165161,492.739838 774.015564,488.321930 
	C773.879089,484.288849 771.917969,482.152954 767.922852,481.957733 
	C764.931274,481.811615 761.933411,481.731598 758.938354,481.731201 
	C675.686646,481.719574 592.434937,481.720398 509.183228,481.728455 
	C506.520386,481.728729 503.857605,481.828644 501.194702,481.877716 
	C496.736542,481.959869 494.491852,484.170258 494.454590,488.686554 
	C494.417389,493.195251 496.606232,495.525757 501.069550,495.610168 
	C507.061279,495.723480 513.055054,495.729523 521.031860,495.782379 
M751.573792,1199.614990 
	C748.390686,1193.840820 742.775940,1195.864380 738.152649,1195.854736 
	C668.885559,1195.710938 599.618103,1195.753662 530.350708,1195.760742 
	C528.020569,1195.760986 525.690613,1195.860474 523.360229,1195.890259 
	C518.953735,1195.946655 516.582886,1198.000122 516.484619,1202.567993 
	C516.376404,1207.596069 518.037842,1209.557251 523.498047,1210.081665 
	C526.141113,1210.335571 528.821167,1210.240967 531.484497,1210.241211 
	C599.752808,1210.248291 668.021179,1210.247437 736.289490,1210.244263 
	C738.620422,1210.244141 740.957092,1210.304443 743.281189,1210.167603 
	C750.746094,1209.728760 750.820557,1209.619751 751.573792,1199.614990 
M653.000000,555.751160 
	C612.728333,555.751770 572.456604,555.749146 532.184937,555.759583 
	C529.190674,555.760315 526.196533,555.859375 523.202209,555.905640 
	C518.725647,555.974915 516.529541,558.223694 516.480469,562.720398 
	C516.425781,567.738525 518.070129,569.551697 523.641907,570.104858 
	C525.622437,570.301514 527.632019,570.238892 529.628296,570.239075 
	C599.188416,570.244934 668.748596,570.247070 738.308716,570.233521 
	C740.968384,570.233032 743.632568,570.142090 746.286682,569.969910 
	C750.431396,569.700989 751.947388,567.152588 752.015564,563.281250 
	C752.091187,558.990540 750.536133,556.167053 745.854797,555.975403 
	C742.863403,555.852905 739.868225,555.764648 736.874634,555.762817 
	C709.583069,555.745972 682.291565,555.751404 653.000000,555.751160 
M1176.299438,1079.408081 
	C1176.299438,1121.323853 1176.299438,1163.239624 1176.299438,1206.030640 
	C1183.142944,1205.884644 1189.294678,1207.785156 1196.367920,1204.097656 
	C1196.367920,1200.380249 1196.367920,1196.454224 1196.367920,1192.528320 
	C1196.367920,1155.572266 1196.369141,1118.616089 1196.367432,1081.660034 
	C1196.366699,1064.431274 1195.729614,1063.895630 1178.086304,1066.284424 
	C1177.779297,1066.325928 1177.503052,1066.594238 1176.299561,1067.267212 
	C1176.299561,1070.346191 1176.299561,1073.941650 1176.299438,1079.408081 
M621.091553,1166.187988 
	C616.107178,1166.260376 611.119263,1166.242798 606.139465,1166.433716 
	C602.226135,1166.583862 600.195007,1168.685791 599.889343,1172.709961 
	C599.426270,1178.806763 601.208557,1181.427612 607.547363,1181.616821 
	C618.840149,1181.954102 630.148376,1181.797852 641.450134,1181.804565 
	C648.430298,1181.808716 655.423340,1181.980103 662.386536,1181.615845 
	C668.159180,1181.313721 669.957092,1178.911987 669.640808,1173.285278 
	C669.346313,1168.047852 667.697205,1166.426880 660.961609,1166.305420 
	C648.333557,1166.077637 635.698975,1166.207520 621.091553,1166.187988 
M601.283386,601.626465 
	C602.783264,602.267029 604.278381,603.452454 605.783752,603.465515 
	C624.759705,603.630615 643.738892,603.786133 662.712952,603.564941 
	C668.138672,603.501648 669.664001,601.234558 669.640808,595.936951 
	C669.615540,590.159180 667.857727,588.373779 660.592285,588.290771 
	C643.944336,588.100403 627.291992,588.104370 610.643311,588.251282 
	C600.337402,588.342163 599.717590,589.252197 601.283386,601.626465 
z"/>
<path fill="#2D308F" opacity="1.000000" stroke="none" 
	d="
M420.309540,1260.000000 
	C420.310760,1232.003174 420.533997,1205.003174 420.161987,1178.011475 
	C420.065125,1170.985107 422.389191,1167.121704 428.804565,1164.292236 
	C475.725311,1143.596924 522.526611,1122.630859 569.362183,1101.742554 
	C572.962219,1100.136963 576.535034,1098.470215 582.164490,1095.897827 
	C577.618286,1093.413330 574.727783,1091.575562 571.636902,1090.182861 
	C523.669495,1068.568481 475.735718,1046.876953 427.619415,1025.598511 
	C420.998444,1022.670471 420.226837,1018.334717 420.238342,1012.244934 
	C420.357544,949.252441 420.309845,886.259766 420.309570,823.267090 
	C420.309479,800.269775 420.576782,777.267639 420.156433,754.278015 
	C420.026001,747.143921 422.604279,743.764282 429.047119,740.926270 
	C475.979004,720.253418 522.732300,699.174988 569.529236,678.196106 
	C573.031982,676.625854 576.435303,674.833740 581.871643,672.172058 
	C576.467590,669.416870 573.101807,667.525574 569.597473,665.940674 
	C522.871643,644.808411 476.163635,623.635742 429.340729,602.720459 
	C423.207214,599.980774 420.071350,596.920044 420.128906,589.485657 
	C420.495422,542.160706 420.307037,494.831543 420.343018,447.503784 
	C420.345001,444.884216 420.717712,442.264954 420.903870,439.828766 
	C428.743073,437.059387 452.768311,436.786987 463.177582,439.442108 
	C463.340210,443.081360 463.662384,446.991211 463.666687,450.901367 
	C463.707397,487.896973 463.886108,524.894531 463.529633,561.886780 
	C463.460663,569.043823 466.075226,572.584900 472.351959,575.379272 
	C524.067566,598.402527 575.710999,621.589844 627.243896,645.018677 
	C632.629578,647.467163 636.980286,647.526672 642.252869,645.158325 
	C694.499146,621.689514 746.788635,598.315369 799.179138,575.170715 
	C805.615051,572.327393 807.867004,568.514771 807.805115,561.496155 
	C807.482117,524.836670 807.657410,488.172729 807.659302,451.510345 
	C807.659485,447.555328 807.659302,443.600311 807.659302,439.970642 
	C815.764771,437.166382 838.098755,436.782928 848.721008,438.959686 
	C850.687378,446.379547 851.298279,585.093994 849.282837,599.382629 
	C796.979980,622.764282 744.182190,646.367188 689.096130,670.993042 
	C693.671814,673.495728 696.257324,675.138672 699.020874,676.387451 
	C745.754944,697.503601 792.511169,718.570618 839.262268,739.649048 
	C840.779724,740.333252 842.258057,741.123535 843.817627,741.691528 
	C848.424683,743.369202 850.907532,746.354919 850.345825,751.493225 
	C850.165894,753.139099 850.339355,754.822876 850.339355,756.489319 
	C850.340637,841.146118 850.169312,925.803711 850.585022,1010.458435 
	C850.630432,1019.718262 847.463562,1024.046753 839.379395,1027.583496 
	C792.398193,1048.137695 745.610413,1069.134033 698.776428,1090.023926 
	C696.101196,1091.217041 693.595764,1092.791016 689.367004,1095.076294 
	C699.029663,1099.664429 707.208496,1103.725830 715.530334,1107.469360 
	C757.134338,1126.184937 798.710938,1144.964722 840.464722,1163.341187 
	C847.906494,1166.616455 850.613892,1170.835571 850.539246,1179.100830 
	C850.123657,1225.091675 850.339905,1271.088257 850.339966,1317.082886 
	C850.339966,1320.691650 850.339905,1324.300415 850.339905,1329.153931 
	C835.861633,1330.020020 822.465027,1329.782349 808.235229,1329.321777 
	C808.009766,1324.291504 807.686829,1320.383301 807.682556,1316.474976 
	C807.642822,1279.812622 807.368652,1243.146118 807.873291,1206.490723 
	C807.989685,1198.040283 804.829773,1194.186035 797.528564,1190.944214 
	C747.312378,1168.648071 697.179626,1146.157837 647.250671,1123.227783 
	C639.466370,1119.652832 633.217407,1119.896973 625.665405,1123.318359 
	C578.952393,1144.481079 532.068176,1165.266113 485.238708,1186.171631 
	C480.069458,1188.479126 474.935944,1190.877563 469.694244,1193.008301 
	C465.471649,1194.724854 463.386505,1197.474243 463.669983,1202.169189 
	C463.910553,1206.153442 463.692352,1210.164917 463.692017,1214.164429 
	C463.689178,1248.493774 463.703766,1282.823120 463.668427,1317.152466 
	C463.664703,1320.744873 463.372070,1324.337158 463.153107,1329.297974 
	C449.037445,1329.933716 435.606323,1329.768799 421.362946,1329.388062 
	C419.302887,1317.444214 420.590668,1306.169800 420.360748,1294.993774 
	C420.127716,1283.666992 420.309418,1272.331665 420.309540,1260.000000 
M807.665222,901.000061 
	C807.665283,892.004517 807.665466,883.008972 807.665283,874.013428 
	C807.664551,843.695007 807.403320,813.372864 807.841797,783.060791 
	C807.954773,775.249023 805.830078,770.544434 798.279175,767.924866 
	C792.014587,765.751526 786.102844,762.562805 780.030457,759.833496 
	C734.487854,739.364258 688.911011,718.970459 643.447693,698.326660 
	C638.418457,696.043030 634.363647,696.091675 629.329346,698.358948 
	C576.820190,722.008850 524.265503,745.561523 471.528198,768.696045 
	C465.040131,771.542175 463.578674,775.246582 463.593079,781.587891 
	C463.747650,849.554077 463.793701,917.521057 463.536224,985.486633 
	C463.509033,992.655762 466.111755,995.976868 472.487000,998.811340 
	C523.588074,1021.530518 574.611450,1044.431274 625.406738,1067.823608 
	C632.322144,1071.008301 637.680237,1070.647949 644.109741,1067.755981 
	C695.720459,1044.542847 747.361267,1021.394775 799.135681,998.550354 
	C805.652954,995.674683 807.895203,991.952087 807.805115,984.957947 
	C807.453064,957.642578 807.663696,930.320007 807.665222,901.000061 
z"/>
<path fill="#2E308F" opacity="1.000000" stroke="none" 
	d="
M1929.944580,916.336548 
	C1920.005493,916.336609 1911.053589,916.336609 1901.028931,916.336609 
	C1900.755859,911.167175 1900.344604,906.967468 1900.341187,902.767395 
	C1900.296997,849.459229 1900.311279,796.151001 1900.310791,742.842834 
	C1900.310791,739.345337 1900.310791,735.847778 1900.310791,732.350281 
	C1899.518311,732.128967 1898.725830,731.907654 1897.933350,731.686340 
	C1895.593262,735.106628 1893.153809,738.463745 1890.927734,741.956787 
	C1855.674194,797.275330 1820.359131,852.555237 1785.341919,908.023132 
	C1781.513550,914.087219 1777.346436,917.028259 1770.102783,916.451538 
	C1763.149536,915.897949 1756.113892,916.152466 1749.124146,916.365112 
	C1744.599609,916.502747 1741.923828,914.613220 1739.490723,910.817261 
	C1705.169189,857.270386 1670.700806,803.817627 1636.247681,750.355164 
	C1631.835938,743.509094 1627.309204,736.737122 1622.835693,729.930786 
	C1622.041016,730.168701 1621.246216,730.406616 1620.451416,730.644531 
	C1620.451416,791.993591 1620.451416,853.342651 1620.451416,915.505005 
	C1603.298584,915.505005 1587.491455,915.505005 1571.744873,915.505005 
	C1571.438843,915.198547 1571.189819,914.974609 1570.971802,914.723816 
	C1570.759521,914.479492 1570.452393,914.228455 1570.405640,913.944275 
	C1570.136597,912.309631 1569.734985,910.664307 1569.734741,909.022522 
	C1569.721313,831.393188 1569.741455,753.763794 1569.793213,676.134460 
	C1569.794067,674.835510 1570.232910,673.536804 1570.670410,671.113647 
	C1573.724487,670.860779 1576.905518,670.381592 1580.088257,670.369507 
	C1599.078979,670.297485 1618.076294,670.606995 1637.057739,670.182617 
	C1643.594116,670.036499 1647.311890,672.368347 1650.746582,677.776794 
	C1685.912964,733.151428 1721.316772,788.375244 1756.673584,843.628845 
	C1757.728027,845.276550 1758.992065,846.790100 1761.125977,849.673279 
	C1763.747070,845.925903 1766.031128,842.929199 1768.034912,839.755493 
	C1801.986694,785.976868 1835.982666,732.225586 1869.713623,678.308655 
	C1873.297485,672.579956 1877.168091,670.016479 1884.084473,670.178345 
	C1903.065186,670.622253 1922.063110,670.307678 1941.053955,670.358093 
	C1943.990234,670.365845 1946.925781,670.715027 1949.624756,670.890930 
	C1952.136108,678.680054 1952.712036,902.953918 1950.159912,916.072266 
	C1943.987427,916.157043 1937.459717,916.246704 1929.944580,916.336548 
z"/>
<path fill="#2D308F" opacity="1.000000" stroke="none" 
	d="
M1426.000000,670.323059 
	C1459.263550,670.323120 1491.527100,670.323120 1525.193726,670.323120 
	C1526.136353,686.481750 1525.654785,701.553894 1525.425415,717.573608 
	C1520.305176,717.863586 1516.096802,718.305603 1511.888306,718.309265 
	C1457.894775,718.356506 1403.901123,718.341064 1349.907593,718.341492 
	C1345.676147,718.341492 1341.444824,718.341431 1336.461060,718.341431 
	C1336.461060,734.510742 1336.461060,749.288818 1336.461060,765.042114 
	C1341.164673,765.262573 1345.387085,765.629395 1349.609619,765.632690 
	C1400.936890,765.672729 1452.264038,765.645752 1503.591309,765.684875 
	C1507.827759,765.688110 1512.064087,766.045776 1516.964111,766.268982 
	C1516.964111,781.957031 1516.964111,796.791687 1516.964111,812.788757 
	C1512.622437,813.092773 1508.454834,813.633789 1504.286865,813.638489 
	C1452.959595,813.697083 1401.632446,813.677307 1350.305176,813.677734 
	C1346.038330,813.677734 1341.771362,813.677734 1337.850952,813.677734 
	C1335.321899,821.873108 1334.720703,851.986328 1336.650635,867.510254 
	C1340.535156,867.768738 1344.687866,868.281433 1348.841064,868.285583 
	C1402.834595,868.340149 1456.828247,868.322571 1510.821777,868.323120 
	C1515.102783,868.323181 1519.383667,868.323120 1523.297607,868.323120 
	C1526.162231,876.305542 1526.671631,902.713379 1524.530640,914.506897 
	C1517.384277,916.712891 1299.788208,917.482544 1286.218750,915.349854 
	C1283.876831,908.304382 1283.229858,683.892090 1285.519897,672.154053 
	C1285.756714,671.919495 1285.967651,671.650818 1286.232300,671.454773 
	C1286.490967,671.263000 1286.789917,671.096985 1287.096680,671.004822 
	C1287.730225,670.814514 1288.380615,670.544250 1289.024414,670.542969 
	C1334.349609,670.454712 1379.674805,670.389832 1426.000000,670.323059 
z"/>
<path fill="#2E3090" opacity="1.000000" stroke="none" 
	d="
M2848.366211,718.337585 
	C2827.831787,719.526855 2808.231689,720.427368 2788.686035,722.003296 
	C2775.223145,723.088745 2770.575928,726.641235 2769.120850,740.130737 
	C2767.020508,759.599243 2766.153320,779.258789 2765.917480,798.850830 
	C2765.745605,813.113159 2767.219238,827.416016 2768.362549,841.668396 
	C2769.931396,861.231201 2773.814941,864.567200 2793.488037,866.263306 
	C2828.737549,869.302185 2864.023193,868.066101 2899.301270,867.560486 
	C2908.261475,867.432068 2917.233887,866.630493 2926.156006,865.704834 
	C2941.375000,864.125671 2945.165771,859.880310 2945.643555,844.794006 
	C2945.864746,837.805725 2946.063232,830.816162 2946.377686,823.831970 
	C2946.449463,822.236389 2946.959473,820.660583 2947.396240,818.415894 
	C2963.849365,818.415894 2979.966309,818.415894 2997.134521,818.415894 
	C2996.853760,824.427734 2996.700439,829.926514 2996.320068,835.409485 
	C2995.537109,846.685730 2995.173584,858.026672 2993.662109,869.209106 
	C2990.791748,890.441589 2978.991699,905.155945 2958.071533,910.127136 
	C2943.300049,913.637207 2927.902344,914.817078 2912.706299,916.144043 
	C2899.472168,917.299805 2886.125000,917.664429 2872.834473,917.556702 
	C2851.876465,917.386902 2830.909668,916.838684 2809.974854,915.852356 
	C2796.044678,915.196045 2782.065186,914.163879 2768.281250,912.126526 
	C2740.328857,907.995239 2724.608887,893.524902 2719.053223,865.806519 
	C2716.061279,850.879150 2714.454590,835.504211 2713.985352,820.276855 
	C2713.031738,789.337646 2712.870361,758.344238 2717.818115,727.609680 
	C2720.672852,709.876038 2727.293213,694.384094 2743.079834,684.108276 
	C2751.689209,678.504089 2761.338135,675.673035 2771.245605,674.630920 
	C2789.751465,672.684387 2808.339111,671.131531 2826.929932,670.484741 
	C2846.882080,669.790710 2866.891602,669.856567 2886.849121,670.469482 
	C2904.441162,671.009705 2922.041504,672.323792 2939.552002,674.129578 
	C2951.536133,675.365601 2962.954346,678.957214 2972.893799,686.445007 
	C2981.503906,692.931580 2987.277832,701.318542 2990.124268,711.488342 
	C2995.032715,729.025635 2993.927246,746.949036 2993.266846,765.584351 
	C2977.054443,765.584351 2961.577148,765.584351 2945.399902,765.584351 
	C2945.022705,762.809814 2944.483154,760.271912 2944.371826,757.715454 
	C2944.154053,752.725220 2944.388916,747.710388 2944.057861,742.730896 
	C2943.077881,727.998718 2940.340820,724.892578 2925.999756,722.332764 
	C2920.771240,721.399414 2915.468994,720.585876 2910.173828,720.371155 
	C2889.896240,719.548950 2869.607910,718.992493 2848.366211,718.337585 
z"/>
<path fill="#2E308F" opacity="1.000000" stroke="none" 
	d="
M2473.896484,693.778442 
	C2477.341064,687.612732 2480.696045,682.223694 2483.508545,676.565063 
	C2485.920898,671.711914 2489.439209,670.139893 2494.731445,670.242371 
	C2509.057373,670.519714 2523.408203,670.727844 2537.717529,670.164856 
	C2545.002930,669.878235 2549.134521,672.333435 2552.669922,678.713562 
	C2570.749268,711.338867 2589.289062,743.708862 2607.632812,776.187927 
	C2632.036621,819.396912 2656.415527,862.619812 2680.773926,905.854309 
	C2682.358154,908.666199 2683.675781,911.628296 2685.643066,915.575378 
	C2681.567139,915.891174 2678.716309,916.288025 2675.863281,916.302917 
	C2662.865479,916.371033 2649.850098,915.940186 2636.875244,916.492798 
	C2630.162109,916.778687 2626.592285,914.249390 2623.648438,908.506409 
	C2618.182861,897.844543 2611.858643,887.626160 2606.227539,877.044556 
	C2603.430664,871.788452 2599.837402,869.530762 2593.651123,869.557617 
	C2542.991699,869.777649 2492.330566,869.763733 2441.670898,869.575623 
	C2435.550293,869.552795 2431.936035,871.606567 2429.097900,877.067932 
	C2423.418945,887.994812 2416.935059,898.500305 2411.040771,909.319763 
	C2408.416260,914.136658 2405.228271,916.599915 2399.317627,916.458862 
	C2383.042725,916.070496 2366.752197,916.324646 2349.137207,916.324646 
	C2350.451416,912.783386 2351.010986,910.299438 2352.212891,908.179749 
	C2392.627930,836.911194 2433.104004,765.677185 2473.896484,693.778442 
M2538.995117,821.688293 
	C2544.654541,821.688354 2550.328613,821.945435 2555.968994,821.616577 
	C2561.683838,821.283447 2567.745605,823.235596 2574.060059,819.381531 
	C2567.670166,808.000671 2561.489258,797.026672 2555.342041,786.033875 
	C2549.334717,775.290405 2543.590088,764.392090 2537.309326,753.811523 
	C2531.025879,743.225830 2526.364990,731.566406 2517.434082,721.024353 
	C2507.522217,738.531799 2498.267334,754.669739 2489.217773,770.921875 
	C2480.135986,787.232178 2469.758545,802.875366 2461.250732,821.688110 
	C2487.876221,821.688110 2512.436768,821.688110 2538.995117,821.688293 
z"/>
<path fill="#2E308F" opacity="1.000000" stroke="none" 
	d="
M2237.161377,756.724487 
	C2266.588623,808.980225 2295.664551,860.590576 2324.687012,912.230957 
	C2325.108887,912.981567 2324.864990,914.106323 2325.021973,916.336365 
	C2318.871338,916.336365 2312.982666,916.338074 2307.094238,916.335999 
	C2296.769287,916.332275 2286.438965,916.121521 2276.122070,916.405945 
	C2270.811035,916.552429 2267.554443,914.708435 2265.036865,909.913513 
	C2259.314453,899.015381 2252.714111,888.572021 2247.149902,877.599426 
	C2243.961426,871.311951 2239.622314,869.522400 2232.874756,869.553284 
	C2182.916748,869.781921 2132.956787,869.789429 2082.999023,869.542358 
	C2076.499756,869.510254 2072.531494,871.450684 2069.506836,877.249695 
	C2063.660645,888.457275 2057.132568,899.307129 2051.038086,910.388123 
	C2048.945068,914.193726 2046.430298,916.448608 2041.696655,916.379517 
	C2026.046387,916.151245 2010.391113,916.274719 1994.738159,916.198486 
	C1993.484863,916.192383 1992.233765,915.690613 1989.783325,915.159424 
	C1991.364136,911.768005 1992.515381,908.781555 1994.075806,906.026733 
	C2028.685913,844.921326 2063.344971,783.843811 2097.984131,722.754883 
	C2106.356201,707.990173 2114.895508,693.314392 2122.941650,678.373352 
	C2126.178223,672.363403 2130.239990,669.922058 2137.181396,670.178223 
	C2151.150879,670.693787 2165.172852,670.778015 2179.133057,670.148132 
	C2186.332275,669.823364 2189.993652,672.917786 2193.185059,678.664246 
	C2205.950928,701.649597 2218.978760,724.489319 2231.908447,747.383667 
	C2233.544678,750.280823 2235.173340,753.182312 2237.161377,756.724487 
M2133.482666,764.464600 
	C2123.031250,782.794312 2112.103271,800.866943 2102.200195,819.841003 
	C2112.239258,822.417664 2205.111084,822.280029 2214.468994,819.602539 
	C2196.667725,786.562439 2178.257324,754.234863 2158.726074,719.969360 
	C2149.803223,735.652161 2141.977051,749.407288 2133.482666,764.464600 
z"/>
<path fill="#2E308F" opacity="1.000000" stroke="none" 
	d="
M3327.859863,916.336548 
	C3315.940918,916.336731 3304.998779,916.336731 3293.006836,916.336731 
	C3292.737793,911.441650 3292.349854,907.571594 3292.341553,903.700745 
	C3292.285645,878.049133 3292.335205,852.397278 3292.283936,826.745667 
	C3292.276123,822.842896 3291.921387,818.940796 3291.741455,815.322937 
	C3281.546631,812.986267 3117.912842,813.118469 3108.409424,815.599060 
	C3108.409424,848.376160 3108.409424,881.523193 3108.409424,915.561279 
	C3090.723877,916.860535 3074.310303,916.549194 3058.103760,915.838562 
	C3055.731201,906.746887 3055.639404,680.814636 3058.060791,670.758362 
	C3073.909912,669.972778 3090.059326,670.228516 3107.434082,670.703247 
	C3109.173828,681.208801 3108.109619,691.447388 3108.297363,701.580566 
	C3108.488770,711.904358 3108.339844,722.234375 3108.339844,732.561707 
	C3108.339844,742.856750 3108.339600,753.151855 3108.339600,764.193970 
	C3111.570068,764.761597 3114.062256,765.579041 3116.555420,765.581787 
	C3172.855713,765.644531 3229.156006,765.623047 3285.456299,765.582336 
	C3287.078125,765.581177 3288.699219,765.198059 3291.548584,764.837891 
	C3293.061279,754.693909 3292.104492,744.456909 3292.273193,734.310852 
	C3292.444824,723.986328 3292.311035,713.656860 3292.311035,703.329529 
	C3292.311035,693.035095 3292.311035,682.740601 3292.311035,672.809021 
	C3299.949951,669.883423 3329.288330,669.235596 3342.364014,671.377686 
	C3344.750244,678.342773 3345.604004,900.368652 3343.112061,915.601990 
	C3338.534668,915.837463 3333.685791,916.086914 3327.859863,916.336548 
z"/>
<path fill="#2D308F" opacity="1.000000" stroke="none" 
	d="
M963.197144,686.921997 
	C986.951416,697.637329 1010.126953,707.809204 1033.010254,718.600830 
	C1039.153442,721.497803 1044.104370,720.918396 1049.933838,718.289001 
	C1083.621338,703.093750 1117.409058,688.119324 1151.223877,673.208618 
	C1154.491089,671.767883 1158.170776,670.491821 1161.668579,670.466492 
	C1190.991333,670.253296 1220.316406,670.339783 1249.640747,670.384460 
	C1251.179932,670.386780 1252.718384,670.828735 1255.100342,671.196045 
	C1252.839355,675.601562 1249.034302,676.309143 1245.997192,677.665527 
	C1189.757812,702.782532 1133.516113,727.895935 1077.123047,752.664612 
	C1070.137817,755.732605 1068.172607,759.941956 1068.215088,767.165894 
	C1068.481445,812.483948 1068.347778,857.804382 1068.346436,903.124023 
	C1068.346313,907.394897 1068.346436,911.665833 1068.346436,915.596558 
	C1059.594849,918.192078 1027.605347,918.443176 1016.976746,916.094849 
	C1016.764343,912.510559 1016.338806,908.634277 1016.334717,904.757629 
	C1016.287048,859.438049 1016.096375,814.116638 1016.489990,768.800415 
	C1016.561707,760.541809 1013.829773,756.532654 1006.299927,753.198914 
	C950.285583,728.399109 894.478333,703.131592 838.624817,677.969177 
	C835.410217,676.520996 832.359558,674.708923 829.591064,671.134644 
	C832.371887,670.863953 835.152161,670.364197 837.933472,670.358276 
	C864.925171,670.300232 891.918457,670.191101 918.907654,670.458069 
	C923.405151,670.502563 928.122009,671.696716 932.326782,673.383606 
	C942.516357,677.471436 952.463745,682.162903 963.197144,686.921997 
z"/>
<path fill="#2D308F" opacity="1.000000" stroke="none" 
	d="
M3413.658936,787.999878 
	C3413.658936,747.434875 3413.658936,707.869934 3413.658936,666.965149 
	C3430.966064,665.832397 3447.357910,666.249329 3463.514160,666.697388 
	C3466.097168,674.392090 3466.918945,896.272278 3464.483154,911.464294 
	C3448.332764,913.167480 3431.930908,912.281128 3414.493408,911.931946 
	C3412.759521,890.892578 3413.916016,870.374939 3413.705078,849.906433 
	C3413.495605,829.606323 3413.658936,809.302246 3413.658936,787.999878 
z"/>
<path fill="#52B450" opacity="1.000000" stroke="none" 
	d="
M2378.764648,1121.123413 
	C2390.925537,1136.041748 2402.631592,1150.408325 2414.532471,1165.014038 
	C2418.801025,1162.040894 2417.561523,1158.431274 2417.573730,1155.409180 
	C2417.676270,1129.743774 2417.620605,1104.078003 2417.640869,1078.412231 
	C2417.650879,1065.965454 2421.041260,1063.311279 2433.313721,1065.741333 
	C2436.426758,1066.357910 2438.038086,1067.965332 2438.225342,1071.035278 
	C2438.346924,1073.029297 2438.358887,1075.032227 2438.359131,1077.031128 
	C2438.365967,1116.363037 2438.369141,1155.694824 2438.352295,1195.026733 
	C2438.351318,1197.354492 2438.763184,1199.932861 2437.907227,1201.934692 
	C2437.152588,1203.698730 2435.028076,1205.806519 2433.271973,1206.048950 
	C2426.269775,1207.015381 2420.255371,1206.594482 2414.916504,1199.764526 
	C2391.962158,1170.400757 2368.284180,1141.602539 2344.841797,1112.620850 
	C2343.239502,1110.639648 2341.407715,1108.843628 2337.844482,1104.956299 
	C2337.570801,1123.414673 2337.733887,1139.532593 2337.704590,1155.642578 
	C2337.675049,1171.955811 2337.698242,1188.268921 2337.698242,1205.468506 
	C2330.445312,1205.468506 2323.739746,1205.468506 2316.667969,1205.468506 
	C2316.667969,1159.187134 2316.667969,1113.239258 2316.667969,1066.123901 
	C2321.621338,1065.994751 2326.547119,1065.292114 2331.271729,1065.976196 
	C2333.772949,1066.338257 2336.405273,1068.718384 2338.158447,1070.858887 
	C2351.655518,1087.337036 2364.951660,1103.979980 2378.764648,1121.123413 
z"/>
<path fill="#53B551" opacity="1.000000" stroke="none" 
	d="
M1035.885254,1206.352051 
	C1012.946960,1206.281982 990.989685,1206.216919 969.032471,1206.116699 
	C968.417969,1206.113892 967.805115,1205.736206 967.201538,1205.536621 
	C965.290527,1198.323364 964.574341,1083.618286 966.437988,1066.381104 
	C969.093384,1066.149048 971.940674,1065.693726 974.789429,1065.684448 
	C994.420959,1065.621216 1014.075134,1065.102905 1033.674438,1065.900635 
	C1042.443970,1066.257568 1051.690552,1067.953613 1059.701172,1071.406982 
	C1082.454224,1081.215576 1087.202271,1110.341919 1069.609009,1127.858398 
	C1067.982178,1129.478149 1066.258545,1131.000610 1064.130249,1132.988159 
	C1066.067261,1134.254272 1067.564453,1135.421387 1069.219971,1136.285278 
	C1082.601440,1143.269165 1087.751831,1155.233643 1087.455933,1169.300171 
	C1087.136475,1184.489136 1079.874878,1195.815552 1065.166016,1201.671631 
	C1056.037109,1205.305786 1046.632935,1206.808594 1035.885254,1206.352051 
M1036.389404,1143.990234 
	C1028.079956,1143.879272 1019.762329,1143.491821 1011.463257,1143.735718 
	C1003.333130,1143.974609 995.035095,1142.344971 987.133789,1144.868042 
	C987.133789,1159.914551 987.133789,1174.347656 987.133789,1189.676270 
	C991.534119,1189.676270 995.132874,1189.691650 998.731567,1189.673584 
	C1012.697266,1189.603027 1026.664795,1189.622070 1040.627197,1189.362671 
	C1043.560547,1189.308228 1046.518066,1188.371216 1049.389893,1187.572998 
	C1059.526367,1184.755615 1065.488770,1177.360107 1065.662720,1167.587524 
	C1065.851074,1157.010132 1061.065552,1149.868896 1050.878662,1146.535034 
	C1046.835571,1145.211914 1042.445557,1144.949219 1036.389404,1143.990234 
M1057.682007,1111.499634 
	C1059.565186,1093.626221 1054.030396,1085.547241 1036.292358,1083.881348 
	C1020.790283,1082.425171 1005.101074,1082.942993 989.492920,1082.684570 
	C988.653748,1082.670654 987.799927,1083.543823 986.326599,1084.344360 
	C986.326599,1091.115479 986.270447,1098.083374 986.342529,1105.049927 
	C986.413452,1111.906494 986.614319,1118.761719 986.768066,1126.090088 
	C1003.594971,1126.090088 1019.241089,1126.541748 1034.844360,1125.919556 
	C1044.107788,1125.550293 1052.354126,1121.863037 1057.682007,1111.499634 
z"/>
<path fill="#52B350" opacity="1.000000" stroke="none" 
	d="
M2638.395264,1200.531006 
	C2615.268799,1210.566528 2592.545654,1211.467651 2569.834473,1202.147949 
	C2546.042969,1192.384766 2532.225098,1174.219360 2527.859131,1149.120972 
	C2523.384521,1123.398926 2530.266113,1101.010620 2549.550781,1083.005493 
	C2563.611084,1069.878418 2580.882080,1064.275635 2599.708252,1063.914429 
	C2626.628906,1063.398071 2649.347900,1072.571045 2665.051270,1095.434204 
	C2685.568359,1125.304932 2680.907471,1173.169312 2645.852051,1195.997070 
	C2643.624023,1197.448120 2641.329834,1198.798340 2638.395264,1200.531006 
M2638.698975,1096.256714 
	C2625.315674,1085.577759 2610.293945,1081.260498 2593.170166,1083.658325 
	C2568.033203,1087.178101 2548.910400,1107.694092 2547.719482,1133.016479 
	C2546.254150,1164.177979 2568.516113,1188.835205 2601.614990,1189.597534 
	C2626.968018,1190.181519 2648.162842,1173.906494 2654.354980,1149.383789 
	C2659.433350,1129.272583 2653.962891,1112.004639 2638.698975,1096.256714 
z"/>
<path fill="#52B350" opacity="1.000000" stroke="none" 
	d="
M2961.479492,1196.506348 
	C2922.836914,1172.646484 2920.446533,1117.153442 2946.541748,1088.414429 
	C2962.581543,1070.749878 2983.149658,1063.667480 3006.443359,1063.899902 
	C3023.146973,1064.066528 3038.758057,1068.682007 3052.081543,1078.983765 
	C3074.015137,1095.942993 3082.427490,1118.967773 3079.052246,1145.936523 
	C3073.445557,1190.732422 3033.470947,1214.896851 2988.975342,1206.924194 
	C2979.712402,1205.264648 2971.036621,1200.326904 2961.479492,1196.506348 
M3054.400879,1115.076904 
	C3046.065918,1095.064819 3024.636475,1080.267090 2996.948730,1083.450928 
	C2969.885986,1086.562866 2949.288818,1110.274780 2950.247314,1137.590210 
	C2951.064453,1160.872559 2965.803223,1180.833130 2988.036377,1187.135010 
	C3012.666260,1194.116211 3037.808105,1185.333984 3050.229492,1165.360474 
	C3059.853271,1149.885620 3060.747070,1133.525879 3054.400879,1115.076904 
z"/>
<path fill="#52B350" opacity="1.000000" stroke="none" 
	d="
M1285.649780,1130.783691 
	C1287.723145,1093.714355 1316.406738,1066.847656 1353.674683,1064.228882 
	C1373.666504,1062.824341 1392.043823,1067.090698 1408.219238,1079.059814 
	C1425.955078,1092.183594 1434.523560,1110.436768 1435.632568,1132.111206 
	C1438.128052,1180.882080 1398.067627,1216.391113 1344.996338,1207.002563 
	C1313.914917,1201.504028 1293.784668,1182.841553 1286.846680,1151.497559 
	C1285.432007,1145.106689 1285.990234,1138.279297 1285.649780,1130.783691 
M1341.285889,1186.210449 
	C1351.895630,1189.829712 1362.627563,1190.719727 1373.637207,1188.089233 
	C1418.281738,1177.422852 1423.712524,1126.742798 1402.618286,1101.847778 
	C1386.724243,1083.089722 1357.775269,1077.528931 1335.459839,1088.592896 
	C1324.763306,1093.896240 1316.581421,1101.939575 1311.383667,1112.917236 
	C1298.874146,1139.337036 1309.542236,1174.268555 1341.285889,1186.210449 
z"/>
<path fill="#53B551" opacity="1.000000" stroke="none" 
	d="
M2115.690918,1076.606201 
	C2115.691162,1093.139404 2115.691162,1108.740234 2115.691162,1124.983032 
	C2142.489502,1124.983032 2168.251221,1124.983032 2195.008789,1124.983032 
	C2195.237305,1120.966553 2195.592773,1117.431519 2195.612305,1113.894653 
	C2195.684326,1100.903076 2195.545166,1087.909790 2195.682373,1074.919312 
	C2195.772217,1066.404419 2196.465820,1065.842041 2204.818604,1065.661133 
	C2206.814697,1065.617920 2208.815430,1065.683105 2210.811279,1065.767822 
	C2214.488281,1065.923706 2216.153564,1068.037720 2216.256348,1071.558716 
	C2216.324219,1073.888794 2216.353760,1076.220947 2216.354004,1078.552124 
	C2216.359375,1116.861816 2216.359619,1155.171387 2216.354004,1193.481079 
	C2216.353516,1195.812256 2216.324951,1198.144409 2216.254150,1200.474365 
	C2216.146729,1204.006592 2214.443848,1206.079834 2210.778320,1206.237549 
	C2209.115234,1206.309082 2207.449219,1206.352051 2205.784668,1206.347046 
	C2196.335938,1206.318115 2195.732910,1205.791016 2195.665283,1196.048340 
	C2195.575195,1183.057007 2195.641602,1170.064575 2195.640869,1157.072632 
	C2195.640625,1153.459839 2195.640869,1149.846924 2195.640869,1144.803101 
	C2168.962158,1143.898315 2143.181152,1144.541504 2116.173828,1144.374878 
	C2115.262207,1155.135132 2115.812500,1165.341797 2115.712646,1175.504028 
	C2115.614990,1185.430786 2115.691406,1195.359131 2115.691406,1205.780762 
	C2108.212891,1205.780762 2101.688477,1205.780762 2094.809082,1205.780762 
	C2094.809082,1159.042236 2094.809082,1112.876709 2094.809082,1066.232544 
	C2101.835449,1066.232544 2108.359863,1066.232544 2115.690430,1066.232544 
	C2115.690430,1069.768555 2115.690430,1072.721069 2115.690918,1076.606201 
z"/>
<path fill="#51B24F" opacity="1.000000" stroke="none" 
	d="
M1719.712891,1171.896729 
	C1719.712891,1177.486572 1719.712891,1182.098145 1719.712891,1188.062500 
	C1733.636230,1188.141235 1746.815063,1188.245117 1759.994019,1188.281982 
	C1773.281128,1188.319214 1786.568481,1188.290039 1800.777344,1188.290039 
	C1800.777344,1194.380127 1800.777344,1199.787598 1800.777344,1205.795898 
	C1766.972656,1205.795898 1733.148682,1205.795898 1698.805420,1205.795898 
	C1698.805420,1159.141602 1698.805420,1112.974121 1698.805420,1066.283813 
	C1731.604980,1066.283813 1764.073853,1066.283813 1797.456055,1066.283813 
	C1797.456055,1072.030396 1797.456055,1077.143555 1797.456055,1083.399902 
	C1772.145142,1083.399902 1746.708130,1083.399902 1720.502686,1083.399902 
	C1720.502686,1097.915283 1720.502686,1111.322876 1720.502686,1125.689941 
	C1743.558228,1125.689941 1766.124146,1125.689941 1789.186279,1125.689941 
	C1789.186279,1131.829468 1789.186279,1137.017578 1789.186279,1143.330566 
	C1766.311768,1143.330566 1743.825439,1143.330566 1721.037720,1143.330566 
	C1718.629517,1153.138428 1720.182373,1162.091309 1719.712891,1171.896729 
z"/>
<path fill="#52B350" opacity="1.000000" stroke="none" 
	d="
M3156.386719,1130.545898 
	C3158.156250,1122.559814 3158.950928,1115.088013 3161.749756,1108.462891 
	C3173.182129,1081.399902 3194.487549,1067.319824 3223.241211,1064.409546 
	C3241.479736,1062.563599 3259.128418,1065.064453 3274.895508,1075.321777 
	C3279.004395,1077.994873 3282.604004,1081.450806 3287.455811,1085.369629 
	C3282.871094,1090.214355 3278.923828,1094.385620 3274.606689,1098.947388 
	C3271.043213,1096.443237 3268.139648,1094.334106 3265.168457,1092.325439 
	C3238.113770,1074.035156 3195.707520,1082.825806 3181.927490,1114.491943 
	C3169.417725,1143.238525 3184.180908,1176.759155 3214.044922,1186.468384 
	C3228.629639,1191.209961 3242.814941,1190.192261 3257.010742,1185.121338 
	C3263.012207,1182.977539 3266.045410,1179.456543 3265.764648,1172.542236 
	C3265.267090,1160.280396 3265.625000,1147.984009 3265.625000,1135.008423 
	C3272.282227,1135.008423 3278.100830,1135.008423 3284.407959,1135.008423 
	C3284.793213,1136.398926 3285.574951,1137.927490 3285.585938,1139.461670 
	C3285.694580,1154.779541 3285.543701,1170.100342 3285.779785,1185.415405 
	C3285.844727,1189.630981 3284.099121,1192.014160 3280.852539,1194.372192 
	C3252.608154,1214.886230 3205.360840,1213.066162 3179.411621,1189.770752 
	C3162.195068,1174.315186 3155.621094,1154.217896 3156.386719,1130.545898 
z"/>
<path fill="#52B350" opacity="1.000000" stroke="none" 
	d="
M1888.118530,1171.779175 
	C1873.621948,1142.130493 1877.226685,1110.396484 1897.966797,1087.321655 
	C1913.709351,1069.806763 1934.291748,1063.437256 1957.240234,1063.993652 
	C1972.497803,1064.363403 1986.894409,1068.056152 1999.238525,1077.611938 
	C2002.343750,1080.015747 2005.118774,1082.846313 2009.012817,1086.351318 
	C2003.977783,1091.001465 1999.513794,1095.124146 1995.098633,1099.201782 
	C1964.430542,1072.266846 1930.113403,1083.325073 1914.599487,1099.923828 
	C1896.316162,1119.485474 1895.563110,1149.959473 1913.328735,1171.019165 
	C1923.838135,1183.477173 1937.877563,1188.843140 1953.799561,1189.576782 
	C1969.663574,1190.307983 1982.846436,1183.722046 1995.350220,1172.440308 
	C1999.211304,1177.462769 2002.783936,1182.110107 2006.484619,1186.924072 
	C1981.233643,1221.728516 1916.234497,1214.356689 1888.118530,1171.779175 
z"/>
<path fill="#52B450" opacity="1.000000" stroke="none" 
	d="
M3423.320312,1132.911377 
	C3424.558594,1134.554688 3425.393555,1135.552002 3426.710449,1137.125122 
	C3427.977295,1135.706177 3429.162354,1134.717285 3429.927490,1133.470459 
	C3441.937988,1113.904297 3454.280762,1094.525391 3465.657471,1074.595703 
	C3469.738281,1067.446899 3474.511230,1064.554688 3482.305908,1065.607178 
	C3485.215088,1066.000244 3488.173828,1066.028076 3491.933105,1066.276855 
	C3490.226074,1069.556519 3489.043701,1072.179810 3487.562256,1074.621704 
	C3471.860840,1100.505249 3456.201172,1126.415161 3440.290039,1152.169556 
	C3437.535156,1156.628662 3436.190918,1161.019897 3436.298828,1166.219727 
	C3436.520264,1176.872070 3436.499268,1187.535156 3436.300781,1198.188599 
	C3436.166260,1205.396118 3435.326904,1206.015747 3428.100098,1206.349487 
	C3427.435547,1206.380249 3426.768066,1206.358398 3426.102051,1206.359741 
	C3416.383545,1206.379395 3415.764404,1205.869995 3415.660645,1196.395508 
	C3415.554688,1186.738525 3415.357178,1177.068970 3415.730957,1167.425415 
	C3415.987305,1160.808716 3414.205322,1155.262329 3410.695801,1149.648682 
	C3395.000244,1124.543213 3379.655273,1099.218506 3364.208252,1073.958008 
	C3363.000732,1071.983521 3361.979980,1069.894775 3360.325439,1066.854370 
	C3367.477783,1064.838501 3374.294922,1065.344727 3380.905762,1066.225220 
	C3382.852295,1066.484497 3384.741211,1069.575806 3386.064697,1071.732544 
	C3398.422607,1091.864990 3410.651123,1112.076660 3423.320312,1132.911377 
z"/>
<path fill="#52B350" opacity="1.000000" stroke="none" 
	d="
M1501.737305,1071.189941 
	C1503.292236,1068.911743 1504.534180,1066.756348 1506.346436,1066.036377 
	C1508.384521,1065.226562 1510.937378,1065.644653 1513.266235,1065.643555 
	C1545.262451,1065.629028 1577.258789,1065.624146 1609.255005,1065.652100 
	C1612.226562,1065.654785 1615.197998,1065.896729 1618.920044,1066.060547 
	C1618.920044,1071.763184 1618.920044,1077.127197 1618.920044,1083.581299 
	C1602.904785,1083.581299 1587.378906,1083.581299 1570.968262,1083.581299 
	C1570.734741,1088.113037 1570.399414,1091.641846 1570.394897,1095.171021 
	C1570.354126,1127.500610 1570.372314,1159.830200 1570.367310,1192.159790 
	C1570.366943,1194.825684 1570.314087,1197.491699 1570.300903,1200.157593 
	C1570.280640,1204.241089 1568.252563,1206.308472 1564.154663,1206.310547 
	C1559.882446,1206.312744 1555.610229,1206.311035 1550.242676,1206.311035 
	C1550.242676,1165.195068 1550.242676,1125.050293 1550.242676,1083.830811 
	C1533.679688,1083.830811 1518.190674,1083.830811 1501.675903,1083.830811 
	C1501.675903,1079.144531 1501.675903,1075.545410 1501.737305,1071.189941 
z"/>
<path fill="#1D4B24" opacity="1.000000" stroke="none" 
	d="
M580.000000,1243.811768 
	C555.685120,1243.811401 532.370178,1243.816650 509.055298,1243.804077 
	C506.392029,1243.802612 503.704742,1243.909668 501.070709,1243.603638 
	C495.815430,1242.993530 494.292419,1241.010864 494.342499,1235.713257 
	C494.382874,1231.440186 496.019897,1228.631958 500.641602,1228.399658 
	C503.300964,1228.265869 505.966492,1228.197998 508.629242,1228.197754 
	C592.229858,1228.187622 675.830444,1228.188599 759.431030,1228.193970 
	C761.761963,1228.194092 764.105774,1228.116333 766.421265,1228.323975 
	C772.617615,1228.880005 774.130127,1230.620239 774.148804,1236.285767 
	C774.165344,1241.297119 771.716187,1243.611450 766.850098,1243.672607 
	C763.520325,1243.714478 760.190613,1243.805908 756.860901,1243.806396 
	C698.240601,1243.814575 639.620300,1243.812134 580.000000,1243.811768 
z"/>
<path fill="#1D4B24" opacity="1.000000" stroke="none" 
	d="
M773.753174,451.333679 
	C771.337158,453.322662 769.235413,455.076202 766.884766,455.524445 
	C763.661194,456.139099 760.248779,455.805908 756.917297,455.806213 
	C674.937744,455.814117 592.958130,455.813385 510.978577,455.808441 
	C507.979706,455.808258 504.966248,455.927216 501.984985,455.682068 
	C495.944672,455.185303 494.289551,453.232635 494.330750,447.626221 
	C494.367554,442.614410 496.875183,440.335449 501.729889,440.295135 
	C504.395447,440.272980 507.060760,440.192993 509.726196,440.192841 
	C592.705505,440.187256 675.684875,440.188049 758.664185,440.190155 
	C760.663574,440.190216 762.666565,440.144989 764.661804,440.243347 
	C773.151428,440.661865 773.445862,441.005524 773.753174,451.333679 
z"/>
<path fill="#53B651" opacity="1.000000" stroke="none" 
	d="
M2853.694336,1206.338135 
	C2824.176514,1206.340942 2795.625488,1206.340942 2766.369385,1206.340942 
	C2766.369385,1159.335938 2766.369385,1113.271606 2766.369385,1066.431885 
	C2772.573730,1066.431885 2778.687256,1066.431885 2786.231934,1066.431885 
	C2786.524902,1106.505737 2786.192139,1146.587280 2786.424561,1188.127686 
	C2811.862793,1188.127686 2836.566406,1188.127686 2861.786865,1188.127686 
	C2861.786865,1194.761230 2861.786865,1199.910522 2861.786865,1205.606567 
	C2859.133545,1205.877930 2856.896973,1206.106689 2853.694336,1206.338135 
z"/>
<path fill="#1F5027" opacity="1.000000" stroke="none" 
	d="
M733.999146,1307.750732 
	C745.650635,1307.799316 756.309326,1307.637451 766.951538,1307.983276 
	C772.547302,1308.164917 774.100464,1310.291504 774.010010,1315.378906 
	C773.940247,1319.300415 772.285095,1321.730957 768.188049,1321.986816 
	C765.532593,1322.152710 762.867493,1322.234131 760.206726,1322.234497 
	C676.315430,1322.247070 592.424133,1322.246094 508.532867,1322.240112 
	C506.203308,1322.239990 503.858459,1322.318726 501.547241,1322.091309 
	C496.051910,1321.550293 494.393463,1319.645386 494.483215,1314.621948 
	C494.564331,1310.081421 496.868713,1307.951904 501.302856,1307.896729 
	C504.630920,1307.855347 507.958832,1307.759033 511.286804,1307.758667 
	C585.191040,1307.750122 659.095215,1307.751587 733.999146,1307.750732 
z"/>
<path fill="#1F5027" opacity="1.000000" stroke="none" 
	d="
M586.000000,1267.750732 
	C643.926147,1267.751099 700.852356,1267.748535 757.778503,1267.761597 
	C761.105713,1267.762329 764.434143,1267.855347 767.759888,1267.966797 
	C772.414001,1268.122803 774.044556,1270.864014 774.028076,1275.188477 
	C774.010864,1279.698486 771.861145,1281.965576 767.383850,1282.068237 
	C764.389404,1282.136963 761.394531,1282.239136 758.399841,1282.239502 
	C675.507324,1282.248779 592.614868,1282.248779 509.722382,1282.238647 
	C506.727997,1282.238281 503.732819,1282.142700 500.739380,1282.048828 
	C496.053314,1281.901611 494.453644,1279.097778 494.478180,1274.812744 
	C494.503632,1270.362549 496.590149,1267.992188 501.112701,1267.913696 
	C504.107574,1267.861816 507.102356,1267.761719 510.097229,1267.760132 
	C535.064819,1267.747070 560.032410,1267.751709 586.000000,1267.750732 
z"/>
<path fill="#1F5027" opacity="1.000000" stroke="none" 
	d="
M510.239197,536.248413 
	C506.616486,536.199280 503.954132,536.139587 501.291443,536.103577 
	C496.851013,536.043518 494.559784,533.900391 494.482849,529.364563 
	C494.397644,524.341309 496.055084,522.446350 501.562256,521.907349 
	C503.873993,521.681091 506.219025,521.759888 508.548920,521.759705 
	C592.118652,521.753357 675.688354,521.752686 759.258118,521.760986 
	C761.920410,521.761230 764.582764,521.860962 767.244995,521.919861 
	C771.648315,522.017151 773.985352,524.093384 774.018616,528.673889 
	C774.055542,533.755493 772.533142,535.583984 766.896057,536.058472 
	C763.256409,536.364807 759.577209,536.241333 755.915710,536.241699 
	C674.343628,536.249756 592.771545,536.248291 510.239197,536.248413 
z"/>
<path fill="#1E4D26" opacity="1.000000" stroke="none" 
	d="
M520.039917,495.781982 
	C513.055054,495.729523 507.061279,495.723480 501.069550,495.610168 
	C496.606232,495.525757 494.417389,493.195251 494.454590,488.686554 
	C494.491852,484.170258 496.736542,481.959869 501.194702,481.877716 
	C503.857605,481.828644 506.520386,481.728729 509.183228,481.728455 
	C592.434937,481.720398 675.686646,481.719574 758.938354,481.731201 
	C761.933411,481.731598 764.931274,481.811615 767.922852,481.957733 
	C771.917969,482.152954 773.879089,484.288849 774.015564,488.321930 
	C774.165161,492.739838 772.354187,495.358002 767.783997,495.561310 
	C764.126831,495.723969 760.462097,495.773773 756.800720,495.774292 
	C678.211121,495.785461 599.621460,495.782562 520.039917,495.781982 
z"/>
<path fill="#1F5027" opacity="1.000000" stroke="none" 
	d="
M751.744019,1200.456421 
	C750.820557,1209.619751 750.746094,1209.728760 743.281189,1210.167603 
	C740.957092,1210.304443 738.620422,1210.244141 736.289490,1210.244263 
	C668.021179,1210.247437 599.752808,1210.248291 531.484497,1210.241211 
	C528.821167,1210.240967 526.141113,1210.335571 523.498047,1210.081665 
	C518.037842,1209.557251 516.376404,1207.596069 516.484619,1202.567993 
	C516.582886,1198.000122 518.953735,1195.946655 523.360229,1195.890259 
	C525.690613,1195.860474 528.020569,1195.760986 530.350708,1195.760742 
	C599.618103,1195.753662 668.885559,1195.710938 738.152649,1195.854736 
	C742.775940,1195.864380 748.390686,1193.840820 751.744019,1200.456421 
z"/>
<path fill="#1F5027" opacity="1.000000" stroke="none" 
	d="
M654.000000,555.750732 
	C682.291565,555.751404 709.583069,555.745972 736.874634,555.762817 
	C739.868225,555.764648 742.863403,555.852905 745.854797,555.975403 
	C750.536133,556.167053 752.091187,558.990540 752.015564,563.281250 
	C751.947388,567.152588 750.431396,569.700989 746.286682,569.969910 
	C743.632568,570.142090 740.968384,570.233032 738.308716,570.233521 
	C668.748596,570.247070 599.188416,570.244934 529.628296,570.239075 
	C527.632019,570.238892 525.622437,570.301514 523.641907,570.104858 
	C518.070129,569.551697 516.425781,567.738525 516.480469,562.720398 
	C516.529541,558.223694 518.725647,555.974915 523.202209,555.905640 
	C526.196533,555.859375 529.190674,555.760315 532.184937,555.759583 
	C572.456604,555.749146 612.728333,555.751770 654.000000,555.750732 
z"/>
<path fill="#52B350" opacity="1.000000" stroke="none" 
	d="
M1176.299561,1078.472656 
	C1176.299561,1073.941650 1176.299561,1070.346191 1176.299561,1067.267212 
	C1177.503052,1066.594238 1177.779297,1066.325928 1178.086304,1066.284424 
	C1195.729614,1063.895630 1196.366699,1064.431274 1196.367432,1081.660034 
	C1196.369141,1118.616089 1196.367920,1155.572266 1196.367920,1192.528320 
	C1196.367920,1196.454224 1196.367920,1200.380249 1196.367920,1204.097656 
	C1189.294678,1207.785156 1183.142944,1205.884644 1176.299438,1206.030640 
	C1176.299438,1163.239624 1176.299438,1121.323853 1176.299561,1078.472656 
z"/>
<path fill="#1D4B24" opacity="1.000000" stroke="none" 
	d="
M622.079346,1166.188232 
	C635.698975,1166.207520 648.333557,1166.077637 660.961609,1166.305420 
	C667.697205,1166.426880 669.346313,1168.047852 669.640808,1173.285278 
	C669.957092,1178.911987 668.159180,1181.313721 662.386536,1181.615845 
	C655.423340,1181.980103 648.430298,1181.808716 641.450134,1181.804565 
	C630.148376,1181.797852 618.840149,1181.954102 607.547363,1181.616821 
	C601.208557,1181.427612 599.426270,1178.806763 599.889343,1172.709961 
	C600.195007,1168.685791 602.226135,1166.583862 606.139465,1166.433716 
	C611.119263,1166.242798 616.107178,1166.260376 622.079346,1166.188232 
z"/>
<path fill="#1D4B24" opacity="1.000000" stroke="none" 
	d="
M600.866516,600.885132 
	C599.717590,589.252197 600.337402,588.342163 610.643311,588.251282 
	C627.291992,588.104370 643.944336,588.100403 660.592285,588.290771 
	C667.857727,588.373779 669.615540,590.159180 669.640808,595.936951 
	C669.664001,601.234558 668.138672,603.501648 662.712952,603.564941 
	C643.738892,603.786133 624.759705,603.630615 605.783752,603.465515 
	C604.278381,603.452454 602.783264,602.267029 600.866516,600.885132 
z"/>
<path fill="#000101" opacity="1.000000" stroke="none" 
	d="
M807.665161,902.000122 
	C807.663696,930.320007 807.453064,957.642578 807.805115,984.957947 
	C807.895203,991.952087 805.652954,995.674683 799.135681,998.550354 
	C747.361267,1021.394775 695.720459,1044.542847 644.109741,1067.755981 
	C637.680237,1070.647949 632.322144,1071.008301 625.406738,1067.823608 
	C574.611450,1044.431274 523.588074,1021.530518 472.487000,998.811340 
	C466.111755,995.976868 463.509033,992.655762 463.536224,985.486633 
	C463.793701,917.521057 463.747650,849.554077 463.593079,781.587891 
	C463.578674,775.246582 465.040131,771.542175 471.528198,768.696045 
	C524.265503,745.561523 576.820190,722.008850 629.329346,698.358948 
	C634.363647,696.091675 638.418457,696.043030 643.447693,698.326660 
	C688.911011,718.970459 734.487854,739.364258 780.030457,759.833496 
	C786.102844,762.562805 792.014587,765.751526 798.279175,767.924866 
	C805.830078,770.544434 807.954773,775.249023 807.841797,783.060791 
	C807.403320,813.372864 807.664551,843.695007 807.665283,874.013428 
	C807.665466,883.008972 807.665283,892.004517 807.665161,902.000122 
M507.354675,796.254333 
	C503.194885,796.405884 499.035095,796.557434 494.955811,796.706116 
	C494.955811,802.283691 494.955811,806.458557 494.955811,811.025879 
	C588.285339,811.025879 680.925781,811.025879 773.663574,811.025879 
	C773.663574,805.800354 773.663574,801.311890 773.663574,796.254211 
	C685.052368,796.254211 597.165466,796.254211 507.354675,796.254333 
M726.999939,956.254150 
	C649.852844,956.254150 572.705688,956.254150 494.989746,956.254150 
	C494.989746,961.866577 494.989746,966.268494 494.989746,971.003784 
	C588.338684,971.003784 680.965881,971.003784 773.639160,971.003784 
	C773.639160,965.757629 773.639160,961.283020 773.639160,956.254150 
	C758.263794,956.254150 743.631836,956.254150 726.999939,956.254150 
M616.999939,939.745850 
	C669.142456,939.745850 721.284912,939.745850 773.757080,939.745850 
	C773.757080,934.017883 773.757080,929.511475 773.757080,925.085999 
	C756.885132,923.073486 502.092621,923.882812 494.865295,925.946838 
	C494.865295,930.096130 494.865295,934.280518 494.865295,939.745850 
	C535.299683,939.745850 575.149780,939.745850 616.999939,939.745850 
M505.474091,892.254761 
	C501.954712,892.441711 498.435303,892.628723 494.911560,892.815918 
	C494.911560,898.180664 494.911560,902.365967 494.911560,907.068115 
	C588.207520,907.068115 680.859314,907.068115 773.710205,907.068115 
	C773.710205,901.870117 773.710205,897.363770 773.710205,892.254333 
	C684.476929,892.254333 595.921265,892.254333 505.474091,892.254761 
M527.007385,875.745850 
	C609.128418,875.745850 691.249390,875.745850 773.783447,875.745850 
	C773.783447,870.101501 773.783447,865.595093 773.783447,861.172729 
	C759.056091,859.224670 502.188782,859.908447 495.210571,861.808960 
	C495.210571,866.258789 495.210571,870.663635 495.210571,875.745850 
	C505.768707,875.745850 515.390808,875.745850 527.007385,875.745850 
M509.274353,828.254211 
	C504.694946,828.254211 500.115509,828.254211 494.985596,828.254211 
	C494.985596,833.858215 494.985596,838.260437 494.985596,842.533875 
	C506.479675,844.513733 766.064392,844.125732 773.627075,842.236755 
	C773.627075,837.748474 773.627075,833.274170 773.627075,828.973694 
	C772.217834,828.668030 771.569458,828.404602 770.920898,828.404114 
	C684.348206,828.341614 597.775452,828.298340 509.274353,828.254211 
M736.694153,1003.745850 
	C741.589172,1003.745850 746.484192,1003.745850 751.794312,1003.745850 
	C751.794312,998.137695 751.794312,993.630432 751.794312,989.208313 
	C737.692749,987.266479 524.186462,987.909790 517.209595,989.808472 
	C517.209595,994.257507 517.209595,998.662231 517.209595,1003.745850 
	C590.357666,1003.745850 662.566528,1003.745850 736.694153,1003.745850 
M541.047607,779.745850 
	C611.164062,779.745850 681.280518,779.745850 751.771423,779.745850 
	C751.771423,774.062988 751.771423,769.556763 751.771423,765.133362 
	C736.143311,763.158569 524.122009,763.895691 516.849792,765.933655 
	C516.849792,770.068665 516.849792,774.252625 516.849792,779.745850 
	C524.616821,779.745850 531.844727,779.745850 541.047607,779.745850 
M599.610840,1027.190796 
	C599.842163,1029.781982 600.073425,1032.373169 600.359009,1035.572632 
	C623.568176,1035.698364 646.305786,1036.132324 669.097473,1035.352051 
	C669.097473,1029.832153 669.097473,1025.648682 669.097473,1020.868530 
	C645.968506,1020.868530 623.466492,1020.868530 600.582703,1020.868530 
	C600.281006,1022.389709 599.966248,1023.976562 599.610840,1027.190796 
M664.009460,747.684814 
	C670.336731,745.419678 670.336731,745.419678 668.783447,734.843384 
	C658.673523,732.832336 608.176575,733.172058 600.239746,735.471252 
	C600.239746,739.121704 600.239746,742.943665 600.239746,747.708740 
	C621.229431,747.708740 641.708801,747.708740 664.009460,747.684814 
z"/>
<path fill="#010103" opacity="1.000000" stroke="none" 
	d="
M2537.996338,821.688232 
	C2512.436768,821.688110 2487.876221,821.688110 2461.250732,821.688110 
	C2469.758545,802.875366 2480.135986,787.232178 2489.217773,770.921875 
	C2498.267334,754.669739 2507.522217,738.531799 2517.434082,721.024353 
	C2526.364990,731.566406 2531.025879,743.225830 2537.309326,753.811523 
	C2543.590088,764.392090 2549.334717,775.290405 2555.342041,786.033875 
	C2561.489258,797.026672 2567.670166,808.000671 2574.060059,819.381531 
	C2567.745605,823.235596 2561.683838,821.283447 2555.968994,821.616577 
	C2550.328613,821.945435 2544.654541,821.688354 2537.996338,821.688232 
z"/>
<path fill="#010103" opacity="1.000000" stroke="none" 
	d="
M2133.816895,763.813538 
	C2141.977051,749.407288 2149.803223,735.652161 2158.726074,719.969360 
	C2178.257324,754.234863 2196.667725,786.562439 2214.468994,819.602539 
	C2205.111084,822.280029 2112.239258,822.417664 2102.200195,819.841003 
	C2112.103271,800.866943 2123.031250,782.794312 2133.816895,763.813538 
z"/>
<path fill="#020402" opacity="1.000000" stroke="none" 
	d="
M1037.301514,1144.097046 
	C1042.445557,1144.949219 1046.835571,1145.211914 1050.878662,1146.535034 
	C1061.065552,1149.868896 1065.851074,1157.010132 1065.662720,1167.587524 
	C1065.488770,1177.360107 1059.526367,1184.755615 1049.389893,1187.572998 
	C1046.518066,1188.371216 1043.560547,1189.308228 1040.627197,1189.362671 
	C1026.664795,1189.622070 1012.697266,1189.603027 998.731567,1189.673584 
	C995.132874,1189.691650 991.534119,1189.676270 987.133789,1189.676270 
	C987.133789,1174.347656 987.133789,1159.914551 987.133789,1144.868042 
	C995.035095,1142.344971 1003.333130,1143.974609 1011.463257,1143.735718 
	C1019.762329,1143.491821 1028.079956,1143.879272 1037.301514,1144.097046 
z"/>
<path fill="#020402" opacity="1.000000" stroke="none" 
	d="
M1057.434570,1112.270752 
	C1052.354126,1121.863037 1044.107788,1125.550293 1034.844360,1125.919556 
	C1019.241089,1126.541748 1003.594971,1126.090088 986.768066,1126.090088 
	C986.614319,1118.761719 986.413452,1111.906494 986.342529,1105.049927 
	C986.270447,1098.083374 986.326599,1091.115479 986.326599,1084.344360 
	C987.799927,1083.543823 988.653748,1082.670654 989.492920,1082.684570 
	C1005.101074,1082.942993 1020.790283,1082.425171 1036.292358,1083.881348 
	C1054.030396,1085.547241 1059.565186,1093.626221 1057.434570,1112.270752 
z"/>
<path fill="#010201" opacity="1.000000" stroke="none" 
	d="
M2639.218262,1096.752441 
	C2653.962891,1112.004639 2659.433350,1129.272583 2654.354980,1149.383789 
	C2648.162842,1173.906494 2626.968018,1190.181519 2601.614990,1189.597534 
	C2568.516113,1188.835205 2546.254150,1164.177979 2547.719482,1133.016479 
	C2548.910400,1107.694092 2568.033203,1087.178101 2593.170166,1083.658325 
	C2610.293945,1081.260498 2625.315674,1085.577759 2639.218262,1096.752441 
z"/>
<path fill="#010201" opacity="1.000000" stroke="none" 
	d="
M3054.714355,1115.803223 
	C3060.747070,1133.525879 3059.853271,1149.885620 3050.229492,1165.360474 
	C3037.808105,1185.333984 3012.666260,1194.116211 2988.036377,1187.135010 
	C2965.803223,1180.833130 2951.064453,1160.872559 2950.247314,1137.590210 
	C2949.288818,1110.274780 2969.885986,1086.562866 2996.948730,1083.450928 
	C3024.636475,1080.267090 3046.065918,1095.064819 3054.714355,1115.803223 
z"/>
<path fill="#010201" opacity="1.000000" stroke="none" 
	d="
M1340.527832,1185.999634 
	C1309.542236,1174.268555 1298.874146,1139.337036 1311.383667,1112.917236 
	C1316.581421,1101.939575 1324.763306,1093.896240 1335.459839,1088.592896 
	C1357.775269,1077.528931 1386.724243,1083.089722 1402.618286,1101.847778 
	C1423.712524,1126.742798 1418.281738,1177.422852 1373.637207,1188.089233 
	C1362.627563,1190.719727 1351.895630,1189.829712 1340.527832,1185.999634 
z"/>
<path fill="#4FAC4D" opacity="1.000000" stroke="none" 
	d="
M508.316589,796.254272 
	C597.165466,796.254211 685.052368,796.254211 773.663574,796.254211 
	C773.663574,801.311890 773.663574,805.800354 773.663574,811.025879 
	C680.925781,811.025879 588.285339,811.025879 494.955811,811.025879 
	C494.955811,806.458557 494.955811,802.283691 494.955811,796.706116 
	C499.035095,796.557434 503.194885,796.405884 508.316589,796.254272 
z"/>
<path fill="#4FAC4D" opacity="1.000000" stroke="none" 
	d="
M727.999878,956.254150 
	C743.631836,956.254150 758.263794,956.254150 773.639160,956.254150 
	C773.639160,961.283020 773.639160,965.757629 773.639160,971.003784 
	C680.965881,971.003784 588.338684,971.003784 494.989746,971.003784 
	C494.989746,966.268494 494.989746,961.866577 494.989746,956.254150 
	C572.705688,956.254150 649.852844,956.254150 727.999878,956.254150 
z"/>
<path fill="#4FAC4D" opacity="1.000000" stroke="none" 
	d="
M615.999878,939.745850 
	C575.149780,939.745850 535.299683,939.745850 494.865295,939.745850 
	C494.865295,934.280518 494.865295,930.096130 494.865295,925.946838 
	C502.092621,923.882812 756.885132,923.073486 773.757080,925.085999 
	C773.757080,929.511475 773.757080,934.017883 773.757080,939.745850 
	C721.284912,939.745850 669.142456,939.745850 615.999878,939.745850 
z"/>
<path fill="#4FAC4D" opacity="1.000000" stroke="none" 
	d="
M506.419830,892.254517 
	C595.921265,892.254333 684.476929,892.254333 773.710205,892.254333 
	C773.710205,897.363770 773.710205,901.870117 773.710205,907.068115 
	C680.859314,907.068115 588.207520,907.068115 494.911560,907.068115 
	C494.911560,902.365967 494.911560,898.180664 494.911560,892.815918 
	C498.435303,892.628723 501.954712,892.441711 506.419830,892.254517 
z"/>
<path fill="#4FAC4D" opacity="1.000000" stroke="none" 
	d="
M526.010132,875.745850 
	C515.390808,875.745850 505.768707,875.745850 495.210571,875.745850 
	C495.210571,870.663635 495.210571,866.258789 495.210571,861.808960 
	C502.188782,859.908447 759.056091,859.224670 773.783447,861.172729 
	C773.783447,865.595093 773.783447,870.101501 773.783447,875.745850 
	C691.249390,875.745850 609.128418,875.745850 526.010132,875.745850 
z"/>
<path fill="#4FAC4D" opacity="1.000000" stroke="none" 
	d="
M510.238525,828.254150 
	C597.775452,828.298340 684.348206,828.341614 770.920898,828.404114 
	C771.569458,828.404602 772.217834,828.668030 773.627075,828.973694 
	C773.627075,833.274170 773.627075,837.748474 773.627075,842.236755 
	C766.064392,844.125732 506.479675,844.513733 494.985596,842.533875 
	C494.985596,838.260437 494.985596,833.858215 494.985596,828.254211 
	C500.115509,828.254211 504.694946,828.254211 510.238525,828.254150 
z"/>
<path fill="#4FAC4D" opacity="1.000000" stroke="none" 
	d="
M735.734741,1003.745850 
	C662.566528,1003.745850 590.357666,1003.745850 517.209595,1003.745850 
	C517.209595,998.662231 517.209595,994.257507 517.209595,989.808472 
	C524.186462,987.909790 737.692749,987.266479 751.794312,989.208313 
	C751.794312,993.630432 751.794312,998.137695 751.794312,1003.745850 
	C746.484192,1003.745850 741.589172,1003.745850 735.734741,1003.745850 
z"/>
<path fill="#4FAC4D" opacity="1.000000" stroke="none" 
	d="
M540.060120,779.745850 
	C531.844727,779.745850 524.616821,779.745850 516.849792,779.745850 
	C516.849792,774.252625 516.849792,770.068665 516.849792,765.933655 
	C524.122009,763.895691 736.143311,763.158569 751.771423,765.133362 
	C751.771423,769.556763 751.771423,774.062988 751.771423,779.745850 
	C681.280518,779.745850 611.164062,779.745850 540.060120,779.745850 
z"/>
<path fill="#4FAC4D" opacity="1.000000" stroke="none" 
	d="
M599.631165,1026.377075 
	C599.966248,1023.976562 600.281006,1022.389709 600.582703,1020.868530 
	C623.466492,1020.868530 645.968506,1020.868530 669.097473,1020.868530 
	C669.097473,1025.648682 669.097473,1029.832153 669.097473,1035.352051 
	C646.305786,1036.132324 623.568176,1035.698364 600.359009,1035.572632 
	C600.073425,1032.373169 599.842163,1029.781982 599.631165,1026.377075 
z"/>
<path fill="#50B04E" opacity="1.000000" stroke="none" 
	d="
M663.098816,747.696777 
	C641.708801,747.708740 621.229431,747.708740 600.239746,747.708740 
	C600.239746,742.943665 600.239746,739.121704 600.239746,735.471252 
	C608.176575,733.172058 658.673523,732.832336 668.783447,734.843384 
	C670.336731,745.419678 670.336731,745.419678 663.098816,747.696777 
z"/>
</svg>